<?xml version="1.0" encoding="utf-8" standalone="no"?>
<!DOCTYPE svg PUBLIC "-//W3C//DTD SVG 1.1//EN"
  "http://www.w3.org/Graphics/SVG/1.1/DTD/svg11.dtd">
<svg xmlns:xlink="http://www.w3.org/1999/xlink" width="361.44pt" height="472.32pt" viewBox="0 0 361.44 472.32" xmlns="http://www.w3.org/2000/svg" version="1.1">
 <metadata>
  <rdf:RDF xmlns:dc="http://purl.org/dc/elements/1.1/" xmlns:cc="http://creativecommons.org/ns#" xmlns:rdf="http://www.w3.org/1999/02/22-rdf-syntax-ns#">
   <cc:Work>
    <dc:type rdf:resource="http://purl.org/dc/dcmitype/StillImage"/>
    <dc:date>2026-02-14T13:00:02.841454</dc:date>
    <dc:format>image/svg+xml</dc:format>
    <dc:creator>
     <cc:Agent>
      <dc:title>Matplotlib v3.8.4, https://matplotlib.org/</dc:title>
     </cc:Agent>
    </dc:creator>
   </cc:Work>
  </rdf:RDF>
 </metadata>
 <defs>
  <style type="text/css">*{stroke-linejoin: round; stroke-linecap: butt}</style>
 </defs>
 <g id="figure_1">
  <g id="patch_1">
   <path d="M 0 472.32
L 361.44 472.32
L 361.44 0
L 0 0
L 0 472.32
z
" style="fill: none"/>
  </g>
  <g id="axes_1">
   <g id="patch_2">
    <path d="M 141.912 66.5136
L 219.528 66.5136
Q 226.1808 66.5136 226.1808 59.8608
L 226.1808 35.4672
Q 226.1808 28.8144 219.528 28.8144
L 141.912 28.8144
Q 135.2592 28.8144 135.2592 35.4672
L 135.2592 59.8608
Q 135.2592 66.5136 141.912 66.5136
z
" clip-path="url(#p9bcdfb0477)" style="fill: #805ad5; stroke: #805ad5; stroke-width: 1.4; stroke-linejoin: miter"/>
   </g>
   <g id="patch_3">
    <path d="M 92.016 111.9744
L 269.424 111.9744
Q 274.968 111.9744 274.968 106.4304
L 274.968 77.6016
Q 274.968 72.0576 269.424 72.0576
L 92.016 72.0576
Q 86.472 72.0576 86.472 77.6016
L 86.472 106.4304
Q 86.472 111.9744 92.016 111.9744
z
" clip-path="url(#p9bcdfb0477)" style="fill: #805ad5; fill-opacity: 0.1; stroke: #805ad5; stroke-width: 1.2; stroke-linejoin: miter"/>
   </g>
   <g id="patch_4">
    <path d="M 114.192 147.456
L 247.248 147.456
Q 252.792 147.456 252.792 141.912
L 252.792 119.736
Q 252.792 114.192 247.248 114.192
L 114.192 114.192
Q 108.648 114.192 108.648 119.736
L 108.648 141.912
Q 108.648 147.456 114.192 147.456
z
" clip-path="url(#p9bcdfb0477)" style="fill: #805ad5; fill-opacity: 0.1; stroke: #805ad5; stroke-width: 1.2; stroke-linejoin: miter"/>
   </g>
   <g id="patch_5">
    <path d="M 92.016 195.1344
L 269.424 195.1344
Q 274.968 195.1344 274.968 189.5904
L 274.968 160.7616
Q 274.968 155.2176 269.424 155.2176
L 92.016 155.2176
Q 86.472 155.2176 86.472 160.7616
L 86.472 189.5904
Q 86.472 195.1344 92.016 195.1344
z
" clip-path="url(#p9bcdfb0477)" style="fill: #805ad5; fill-opacity: 0.1; stroke: #805ad5; stroke-width: 1.2; stroke-linejoin: miter"/>
   </g>
   <g id="patch_6">
    <path d="M 92.016 239.4864
L 269.424 239.4864
Q 274.968 239.4864 274.968 233.9424
L 274.968 205.1136
Q 274.968 199.5696 269.424 199.5696
L 92.016 199.5696
Q 86.472 199.5696 86.472 205.1136
L 86.472 233.9424
Q 86.472 239.4864 92.016 239.4864
z
" clip-path="url(#p9bcdfb0477)" style="fill: #805ad5; fill-opacity: 0.1; stroke: #805ad5; stroke-width: 1.2; stroke-linejoin: miter"/>
   </g>
   <g id="patch_7">
    <path d="M 92.016 281.0664
L 269.424 281.0664
Q 274.968 281.0664 274.968 275.5224
L 274.968 246.6936
Q 274.968 241.1496 269.424 241.1496
L 92.016 241.1496
Q 86.472 241.1496 86.472 246.6936
L 86.472 275.5224
Q 86.472 281.0664 92.016 281.0664
z
" clip-path="url(#p9bcdfb0477)" style="fill: #805ad5; fill-opacity: 0.1; stroke: #805ad5; stroke-width: 1.2; stroke-linejoin: miter"/>
   </g>
   <g id="patch_8">
    <path d="M 180.72 284.9472
L 157.4352 308.232
L 180.72 331.5168
L 204.0048 308.232
z
" clip-path="url(#p9bcdfb0477)" style="fill: #ffffff; stroke: #805ad5; stroke-width: 1.4; stroke-linejoin: miter"/>
   </g>
   <g id="patch_9">
    <path d="M 236.16 339.8328
L 302.688 339.8328
Q 308.232 339.8328 308.232 334.2888
L 308.232 309.8952
Q 308.232 304.3512 302.688 304.3512
L 236.16 304.3512
Q 230.616 304.3512 230.616 309.8952
L 230.616 334.2888
Q 230.616 339.8328 236.16 339.8328
z
" clip-path="url(#p9bcdfb0477)" style="fill: #805ad5; fill-opacity: 0.1; stroke: #805ad5; stroke-width: 1.2; stroke-linejoin: miter"/>
   </g>
   <g id="patch_10">
    <path d="M 180.72 340.3872
L 157.4352 363.672
L 180.72 386.9568
L 204.0048 363.672
z
" clip-path="url(#p9bcdfb0477)" style="fill: #ffffff; stroke: #805ad5; stroke-width: 1.4; stroke-linejoin: miter"/>
   </g>
   <g id="patch_11">
    <path d="M 236.16 395.2728
L 302.688 395.2728
Q 308.232 395.2728 308.232 389.7288
L 308.232 365.3352
Q 308.232 359.7912 302.688 359.7912
L 236.16 359.7912
Q 230.616 359.7912 230.616 365.3352
L 230.616 389.7288
Q 230.616 395.2728 236.16 395.2728
z
" clip-path="url(#p9bcdfb0477)" style="fill: #805ad5; fill-opacity: 0.1; stroke: #805ad5; stroke-width: 1.2; stroke-linejoin: miter"/>
   </g>
   <g id="line2d_1">
    <path d="M 204.0048 308.232
L 269.424 308.232
" clip-path="url(#p9bcdfb0477)" style="fill: none; stroke: #2d3748; stroke-width: 1.2; stroke-linecap: square"/>
   </g>
   <g id="line2d_2">
    <path d="M 269.424 334.2888
L 269.424 363.672
" clip-path="url(#p9bcdfb0477)" style="fill: none; stroke: #2d3748; stroke-width: 1.2; stroke-linecap: square"/>
   </g>
   <g id="line2d_3">
    <path d="M 269.424 363.672
L 204.0048 363.672
" clip-path="url(#p9bcdfb0477)" style="fill: none; stroke: #2d3748; stroke-width: 1.2; stroke-linecap: square"/>
   </g>
   <g id="line2d_4">
    <path d="M 204.0048 363.672
L 269.424 363.672
" clip-path="url(#p9bcdfb0477)" style="fill: none; stroke: #2d3748; stroke-width: 1.2; stroke-linecap: square"/>
   </g>
   <g id="line2d_5">
    <path d="M 269.424 389.7288
L 269.424 408.024
" clip-path="url(#p9bcdfb0477)" style="fill: none; stroke: #2d3748; stroke-width: 1.2; stroke-linecap: square"/>
   </g>
   <g id="line2d_6">
    <path d="M 269.424 408.024
L 180.72 408.024
" clip-path="url(#p9bcdfb0477)" style="fill: none; stroke: #2d3748; stroke-width: 1.2; stroke-linecap: square"/>
   </g>
   <g id="line2d_7">
    <path d="M 180.72 408.024
L 119.736 408.024
" clip-path="url(#p9bcdfb0477)" style="fill: none; stroke: #2d3748; stroke-width: 1.2; stroke-linecap: square"/>
   </g>
   <g id="line2d_8">
    <path d="M 119.736 408.024
L 119.736 130.824
" clip-path="url(#p9bcdfb0477)" style="fill: none; stroke: #2d3748; stroke-width: 1.2; stroke-linecap: square"/>
   </g>
   <g id="text_1">
    <text style="fill: #ffffff; font: 700 9px 'DejaVu Sans', 'Bitstream Vera Sans', 'Computer Modern Sans Serif', 'Lucida Grande', 'Verdana', 'Geneva', 'Lucid', 'Arial', 'Helvetica', 'Avant Garde', sans-serif; text-anchor: middle" x="180.72" y="50.147437" transform="rotate(-0 180.72 50.147437)">Start</text>
   </g>
   <g id="patch_12">
    <path d="M 180.72 61.857506
Q 180.72 68.72825 180.72 74.257354
" style="fill: none; stroke: #2d3748; stroke-width: 1.2; stroke-linecap: round"/>
    <path d="M 183.12 69.457354
L 180.72 74.257354
L 178.32 69.457354
z
" style="fill: #2d3748; stroke: #2d3748; stroke-width: 1.2; stroke-linecap: round"/>
   </g>
   <g id="text_2">
    <text style="fill: #2d3748; font: 9px 'DejaVu Sans', 'Bitstream Vera Sans', 'Computer Modern Sans Serif', 'Lucida Grande', 'Verdana', 'Geneva', 'Lucid', 'Arial', 'Helvetica', 'Avant Garde', sans-serif" transform="translate(130.164609 89.460422)">Initialize particles with</text>
    <text style="fill: #2d3748; font: 9px 'DejaVu Sans', 'Bitstream Vera Sans', 'Computer Modern Sans Serif', 'Lucida Grande', 'Verdana', 'Geneva', 'Lucid', 'Arial', 'Helvetica', 'Avant Garde', sans-serif" transform="translate(109.053984 99.538453)">random positions and velocities</text>
   </g>
   <g id="patch_13">
    <path d="M 180.72 108.433062
Q 180.72 111.422316 180.72 113.06993
" style="fill: none; stroke: #2d3748; stroke-width: 1.2; stroke-linecap: round"/>
    <path d="M 183.12 108.26993
L 180.72 113.06993
L 178.32 108.26993
z
" style="fill: #2d3748; stroke: #2d3748; stroke-width: 1.2; stroke-linecap: round"/>
   </g>
   <g id="text_3">
    <text style="fill: #2d3748; font: 9px 'DejaVu Sans', 'Bitstream Vera Sans', 'Computer Modern Sans Serif', 'Lucida Grande', 'Verdana', 'Geneva', 'Lucid', 'Arial', 'Helvetica', 'Avant Garde', sans-serif; text-anchor: middle" x="180.72" y="133.307437" transform="rotate(-0 180.72 133.307437)">For each particle:</text>
   </g>
   <g id="patch_14">
    <path d="M 180.72 143.91385
Q 180.72 151.336156 180.72 157.416821
" style="fill: none; stroke: #2d3748; stroke-width: 1.2; stroke-linecap: round"/>
    <path d="M 183.12 152.616821
L 180.72 157.416821
L 178.32 152.616821
z
" style="fill: #2d3748; stroke: #2d3748; stroke-width: 1.2; stroke-linecap: round"/>
   </g>
   <g id="text_4">
    <text style="fill: #2d3748; font: 9px 'DejaVu Sans', 'Bitstream Vera Sans', 'Computer Modern Sans Serif', 'Lucida Grande', 'Verdana', 'Geneva', 'Lucid', 'Arial', 'Helvetica', 'Avant Garde', sans-serif" transform="translate(121.260938 172.620422)">v = w*v + c1*r1*(pbest-x)</text>
    <text style="fill: #2d3748; font: 9px 'DejaVu Sans', 'Bitstream Vera Sans', 'Computer Modern Sans Serif', 'Lucida Grande', 'Verdana', 'Geneva', 'Lucid', 'Arial', 'Helvetica', 'Avant Garde', sans-serif" transform="translate(133.428516 182.698453)">     + c2*r2*(gbest-x)</text>
   </g>
   <g id="patch_15">
    <path d="M 180.72 191.587648
Q 180.72 197.351698 180.72 201.774107
" style="fill: none; stroke: #2d3748; stroke-width: 1.2; stroke-linecap: round"/>
    <path d="M 183.12 196.974107
L 180.72 201.774107
L 178.32 196.974107
z
" style="fill: #2d3748; stroke: #2d3748; stroke-width: 1.2; stroke-linecap: round"/>
   </g>
   <g id="text_5">
    <text style="fill: #2d3748; font: 9px 'DejaVu Sans', 'Bitstream Vera Sans', 'Computer Modern Sans Serif', 'Lucida Grande', 'Verdana', 'Geneva', 'Lucid', 'Arial', 'Helvetica', 'Avant Garde', sans-serif; text-anchor: middle" x="180.72" y="222.011437" transform="rotate(-0 180.72 222.011437)">Update position: x = x + v</text>
   </g>
   <g id="patch_16">
    <path d="M 180.72 235.944114
Q 180.72 240.317654 180.72 243.349553
" style="fill: none; stroke: #2d3748; stroke-width: 1.2; stroke-linecap: round"/>
    <path d="M 183.12 238.549553
L 180.72 243.349553
L 178.32 238.549553
z
" style="fill: #2d3748; stroke: #2d3748; stroke-width: 1.2; stroke-linecap: round"/>
   </g>
   <g id="text_6">
    <text style="fill: #2d3748; font: 9px 'DejaVu Sans', 'Bitstream Vera Sans', 'Computer Modern Sans Serif', 'Lucida Grande', 'Verdana', 'Geneva', 'Lucid', 'Arial', 'Helvetica', 'Avant Garde', sans-serif; text-anchor: middle" x="180.72" y="263.591437" transform="rotate(-0 180.72 263.591437)">Evaluate fitness</text>
   </g>
   <g id="patch_17">
    <path d="M 180.72 277.52425
Q 180.72 280.237178 180.72 281.608467
" style="fill: none; stroke: #2d3748; stroke-width: 1.2; stroke-linecap: round"/>
    <path d="M 183.12 276.808467
L 180.72 281.608467
L 178.32 276.808467
z
" style="fill: #2d3748; stroke: #2d3748; stroke-width: 1.2; stroke-linecap: round"/>
   </g>
   <g id="text_7">
    <text style="fill: #2d3748; font: 8px 'DejaVu Sans', 'Bitstream Vera Sans', 'Computer Modern Sans Serif', 'Lucida Grande', 'Verdana', 'Geneva', 'Lucid', 'Arial', 'Helvetica', 'Avant Garde', sans-serif; text-anchor: middle" x="180.72" y="310.4395" transform="rotate(-0 180.72 310.4395)">pbest?</text>
   </g>
   <g id="text_8">
    <text style="fill: #2d3748; font: italic 7.5px 'DejaVu Sans', 'Bitstream Vera Sans', 'Computer Modern Sans Serif', 'Lucida Grande', 'Verdana', 'Geneva', 'Lucid', 'Arial', 'Helvetica', 'Avant Garde', sans-serif; text-anchor: start" x="213.984" y="313.073531" transform="rotate(-0 213.984 313.073531)">Yes</text>
   </g>
   <g id="patch_18">
    <path d="M 269.424 306.233805
Q 269.424 302.412383 269.424 299.932602
" style="fill: none; stroke: #2d3748; stroke-width: 1.2; stroke-linecap: round"/>
    <path d="M 267.024 304.732602
L 269.424 299.932602
L 271.824 304.732602
z
" style="fill: #2d3748; stroke: #2d3748; stroke-width: 1.2; stroke-linecap: round"/>
   </g>
   <g id="text_9">
    <text style="fill: #2d3748; font: 9px 'DejaVu Sans', 'Bitstream Vera Sans', 'Computer Modern Sans Serif', 'Lucida Grande', 'Verdana', 'Geneva', 'Lucid', 'Arial', 'Helvetica', 'Avant Garde', sans-serif" transform="translate(253.126266 319.536422)">Update</text>
    <text style="fill: #2d3748; font: 9px 'DejaVu Sans', 'Bitstream Vera Sans', 'Computer Modern Sans Serif', 'Lucida Grande', 'Verdana', 'Geneva', 'Lucid', 'Arial', 'Helvetica', 'Avant Garde', sans-serif" transform="translate(256.833141 329.614453)">pbest</text>
   </g>
   <g id="text_10">
    <text style="fill: #2d3748; font: italic 7.5px 'DejaVu Sans', 'Bitstream Vera Sans', 'Computer Modern Sans Serif', 'Lucida Grande', 'Verdana', 'Geneva', 'Lucid', 'Arial', 'Helvetica', 'Avant Garde', sans-serif; text-anchor: end" x="170.7408" y="339.130331" transform="rotate(-0 170.7408 339.130331)">No</text>
   </g>
   <g id="patch_19">
    <path d="M 180.72 333.513506
Q 180.72 335.951855 180.72 337.048563
" style="fill: none; stroke: #2d3748; stroke-width: 1.2; stroke-linecap: round"/>
    <path d="M 183.12 332.248563
L 180.72 337.048563
L 178.32 332.248563
z
" style="fill: #2d3748; stroke: #2d3748; stroke-width: 1.2; stroke-linecap: round"/>
   </g>
   <g id="text_11">
    <text style="fill: #2d3748; font: 8px 'DejaVu Sans', 'Bitstream Vera Sans', 'Computer Modern Sans Serif', 'Lucida Grande', 'Verdana', 'Geneva', 'Lucid', 'Arial', 'Helvetica', 'Avant Garde', sans-serif; text-anchor: middle" x="180.72" y="365.8795" transform="rotate(-0 180.72 365.8795)">gbest?</text>
   </g>
   <g id="text_12">
    <text style="fill: #2d3748; font: italic 7.5px 'DejaVu Sans', 'Bitstream Vera Sans', 'Computer Modern Sans Serif', 'Lucida Grande', 'Verdana', 'Geneva', 'Lucid', 'Arial', 'Helvetica', 'Avant Garde', sans-serif; text-anchor: start" x="213.984" y="368.513531" transform="rotate(-0 213.984 368.513531)">Yes</text>
   </g>
   <g id="patch_20">
    <path d="M 269.424 361.673805
Q 269.424 357.852383 269.424 355.372602
" style="fill: none; stroke: #2d3748; stroke-width: 1.2; stroke-linecap: round"/>
    <path d="M 267.024 360.172602
L 269.424 355.372602
L 271.824 360.172602
z
" style="fill: #2d3748; stroke: #2d3748; stroke-width: 1.2; stroke-linecap: round"/>
   </g>
   <g id="text_13">
    <text style="fill: #2d3748; font: 9px 'DejaVu Sans', 'Bitstream Vera Sans', 'Computer Modern Sans Serif', 'Lucida Grande', 'Verdana', 'Geneva', 'Lucid', 'Arial', 'Helvetica', 'Avant Garde', sans-serif" transform="translate(253.126266 374.976422)">Update</text>
    <text style="fill: #2d3748; font: 9px 'DejaVu Sans', 'Bitstream Vera Sans', 'Computer Modern Sans Serif', 'Lucida Grande', 'Verdana', 'Geneva', 'Lucid', 'Arial', 'Helvetica', 'Avant Garde', sans-serif" transform="translate(256.833141 385.054453)">gbest</text>
   </g>
   <g id="text_14">
    <text style="fill: #2d3748; font: italic 7.5px 'DejaVu Sans', 'Bitstream Vera Sans', 'Computer Modern Sans Serif', 'Lucida Grande', 'Verdana', 'Geneva', 'Lucid', 'Arial', 'Helvetica', 'Avant Garde', sans-serif; text-anchor: end" x="170.7408" y="394.570331" transform="rotate(-0 170.7408 394.570331)">No</text>
   </g>
   <g id="patch_21">
    <path d="M 180.72 388.95865
Q 180.72 395.275403 180.72 400.250515
" style="fill: none; stroke: #2d3748; stroke-width: 1.2; stroke-linecap: round"/>
    <path d="M 183.12 395.450515
L 180.72 400.250515
L 178.32 395.450515
z
" style="fill: #2d3748; stroke: #2d3748; stroke-width: 1.2; stroke-linecap: round"/>
   </g>
   <g id="patch_22">
    <path d="M 117.735504 130.824
Q 116.962093 130.824 117.530322 130.824
" style="fill: none; stroke: #2d3748; stroke-width: 1.2; stroke-linecap: round"/>
    <path d="M 122.330322 133.224
L 117.530322 130.824
L 122.330322 128.424
z
" style="fill: #2d3748; stroke: #2d3748; stroke-width: 1.2; stroke-linecap: round"/>
   </g>
  </g>
 </g>
 <defs>
  <clipPath id="p9bcdfb0477">
   <rect x="14.4" y="14.4" width="332.64" height="443.52"/>
  </clipPath>
 </defs>
</svg>
