<?xml version="1.0" encoding="utf-8" standalone="no"?>
<!DOCTYPE svg PUBLIC "-//W3C//DTD SVG 1.1//EN"
  "http://www.w3.org/Graphics/SVG/1.1/DTD/svg11.dtd">
<svg xmlns:xlink="http://www.w3.org/1999/xlink" width="993.587773pt" height="351.708714pt" viewBox="0 0 993.587773 351.708714" xmlns="http://www.w3.org/2000/svg" version="1.1">
 <metadata>
  <rdf:RDF xmlns:dc="http://purl.org/dc/elements/1.1/" xmlns:cc="http://creativecommons.org/ns#" xmlns:rdf="http://www.w3.org/1999/02/22-rdf-syntax-ns#">
   <cc:Work>
    <dc:type rdf:resource="http://purl.org/dc/dcmitype/StillImage"/>
    <dc:date>2026-02-14T13:00:02.133500</dc:date>
    <dc:format>image/svg+xml</dc:format>
    <dc:creator>
     <cc:Agent>
      <dc:title>Matplotlib v3.8.4, https://matplotlib.org/</dc:title>
     </cc:Agent>
    </dc:creator>
   </cc:Work>
  </rdf:RDF>
 </metadata>
 <defs>
  <style type="text/css">*{stroke-linejoin: round; stroke-linecap: butt}</style>
 </defs>
 <g id="figure_1">
  <g id="patch_1">
   <path d="M 0 351.708714
L 993.587773 351.708714
L 993.587773 0
L 0 0
L 0 351.708714
z
" style="fill: none"/>
  </g>
  <g id="axes_1">
   <g id="patch_2">
    <path d="M 43.908281 280.836332
L 321.632132 280.836332
L 321.632132 68.764714
L 43.908281 68.764714
L 43.908281 280.836332
z
" style="fill: none"/>
   </g>
   <g id="PolyCollection_1">
    <defs>
     <path id="m9ce69b677f" d="M 56.532093 -190.759436
L 56.532093 -80.512001
L 57.800817 -81.640453
L 59.069542 -82.781465
L 60.338267 -83.93459
L 61.606992 -85.099377
L 62.875716 -86.275371
L 64.144441 -87.462113
L 65.413166 -88.659141
L 66.681891 -89.865988
L 67.950615 -91.082184
L 69.21934 -92.307259
L 70.488065 -93.540738
L 71.75679 -94.782144
L 73.025515 -96.031001
L 74.294239 -97.286827
L 75.562964 -98.549144
L 76.831689 -99.81747
L 78.100414 -101.091323
L 79.369138 -102.370223
L 80.637863 -103.653687
L 81.906588 -104.941234
L 83.175313 -106.232386
L 84.444037 -107.526663
L 85.712762 -108.823588
L 86.981487 -110.122685
L 88.250212 -111.423481
L 89.518936 -112.725505
L 90.787661 -114.02829
L 92.056386 -115.331369
L 93.325111 -116.634282
L 94.593835 -117.93657
L 95.86256 -119.237778
L 97.131285 -120.537457
L 98.40001 -121.83516
L 99.668735 -123.130448
L 100.937459 -124.422884
L 102.206184 -125.712037
L 103.474909 -126.997483
L 104.743634 -128.278803
L 106.012358 -129.555583
L 107.281083 -130.827416
L 108.549808 -132.093902
L 109.818533 -133.354648
L 111.087257 -134.609267
L 112.355982 -135.85738
L 113.624707 -137.098616
L 114.893432 -138.332609
L 116.162156 -139.559004
L 117.430881 -140.777454
L 118.699606 -141.987617
L 119.968331 -143.189163
L 121.237055 -144.38177
L 122.50578 -145.565122
L 123.774505 -146.738916
L 125.04323 -147.902856
L 126.311955 -149.056654
L 127.580679 -150.200036
L 128.849404 -151.332732
L 130.118129 -152.454486
L 131.386854 -153.565049
L 132.655578 -154.664185
L 133.924303 -155.751664
L 135.193028 -156.827271
L 136.461753 -157.890797
L 137.730477 -158.942045
L 138.999202 -159.98083
L 140.267927 -161.006975
L 141.536652 -162.020315
L 142.805376 -163.020695
L 144.074101 -164.007972
L 145.342826 -164.982012
L 146.611551 -165.942692
L 147.880275 -166.889901
L 149.149 -167.823539
L 150.417725 -168.743514
L 151.68645 -169.649747
L 152.955174 -170.542171
L 154.223899 -171.420727
L 155.492624 -172.285369
L 156.761349 -173.13606
L 158.030074 -173.972774
L 159.298798 -174.795499
L 160.567523 -175.604228
L 161.836248 -176.398968
L 163.104973 -177.179737
L 164.373697 -177.946561
L 165.642422 -178.699479
L 166.911147 -179.438538
L 168.179872 -180.163797
L 169.448596 -180.875322
L 170.717321 -181.573194
L 171.986046 -182.257498
L 173.254771 -182.928334
L 174.523495 -183.585808
L 175.79222 -184.230037
L 177.060945 -184.861146
L 178.32967 -185.479272
L 179.598394 -186.084558
L 180.867119 -186.677156
L 182.135844 -187.25723
L 183.404569 -187.824948
L 184.673294 -188.380489
L 185.942018 -188.92404
L 187.210743 -189.455796
L 188.479468 -189.975959
L 189.748193 -190.484738
L 191.016917 -190.982351
L 192.285642 -190.768366
L 193.554367 -189.707299
L 194.823092 -188.636663
L 196.091816 -187.557325
L 197.360541 -186.470155
L 198.629266 -185.376029
L 199.897991 -184.275828
L 201.166715 -183.170437
L 202.43544 -182.060745
L 203.704165 -180.947644
L 204.97289 -179.832028
L 206.241614 -178.714795
L 207.510339 -177.596842
L 208.779064 -176.479072
L 210.047789 -175.362383
L 211.316514 -174.247677
L 212.585238 -173.135854
L 213.853963 -172.027816
L 215.122688 -170.92446
L 216.391413 -169.826683
L 217.660137 -168.735381
L 218.928862 -167.651445
L 220.197587 -166.575764
L 221.466312 -165.509223
L 222.735036 -164.452703
L 224.003761 -163.40708
L 225.272486 -162.373225
L 226.541211 -161.352003
L 227.809935 -160.344272
L 229.07866 -159.350886
L 230.347385 -158.372688
L 231.61611 -157.410517
L 232.884834 -156.465203
L 234.153559 -155.537565
L 235.422284 -154.628415
L 236.691009 -153.738557
L 237.959734 -152.868782
L 239.228458 -152.019872
L 240.497183 -151.192598
L 241.765908 -150.387721
L 243.034633 -149.605988
L 244.303357 -148.848135
L 245.572082 -148.114887
L 246.840807 -147.406954
L 248.109532 -146.725032
L 249.378256 -146.069806
L 250.646981 -145.441946
L 251.915706 -144.842106
L 253.184431 -144.270925
L 254.453155 -143.72903
L 255.72188 -143.217029
L 256.990605 -142.735516
L 258.25933 -142.285068
L 259.528054 -141.866245
L 260.796779 -141.479591
L 262.065504 -141.125633
L 263.334229 -140.804878
L 264.602953 -140.517819
L 265.871678 -140.264928
L 267.140403 -140.04666
L 268.409128 -139.863451
L 269.677853 -139.715717
L 270.946577 -139.603857
L 272.215302 -139.52825
L 273.484027 -139.489255
L 274.752752 -139.487211
L 276.021476 -139.522437
L 277.290201 -139.595233
L 278.558926 -139.705879
L 279.827651 -139.854631
L 281.096375 -140.041729
L 282.3651 -140.26739
L 283.633825 -140.531809
L 284.90255 -140.835163
L 286.171274 -141.177605
L 287.439999 -141.559268
L 288.708724 -141.980265
L 289.977449 -142.440685
L 291.246173 -142.940599
L 292.514898 -143.480053
L 293.783623 -144.059073
L 295.052348 -144.677665
L 296.321073 -145.335812
L 297.589797 -146.033476
L 298.858522 -146.770596
L 300.127247 -147.547093
L 301.395972 -148.362863
L 302.664696 -149.217783
L 303.933421 -150.111707
L 305.202146 -151.04447
L 306.470871 -152.015885
L 307.739595 -153.025743
L 309.00832 -154.073814
L 309.00832 -273.304381
L 309.00832 -273.304381
L 307.739595 -272.677549
L 306.470871 -272.05913
L 305.202146 -271.449195
L 303.933421 -270.847806
L 302.664696 -270.255016
L 301.395972 -269.67087
L 300.127247 -269.095404
L 298.858522 -268.528644
L 297.589797 -267.970607
L 296.321073 -267.421303
L 295.052348 -266.880732
L 293.783623 -266.348883
L 292.514898 -265.825738
L 291.246173 -265.311271
L 289.977449 -264.805445
L 288.708724 -264.308214
L 287.439999 -263.819525
L 286.171274 -263.339314
L 284.90255 -262.867509
L 283.633825 -262.40403
L 282.3651 -261.948786
L 281.096375 -261.501681
L 279.827651 -261.062606
L 278.558926 -260.631447
L 277.290201 -260.208079
L 276.021476 -259.792371
L 274.752752 -259.384181
L 273.484027 -258.983362
L 272.215302 -258.589757
L 270.946577 -258.203201
L 269.677853 -257.823521
L 268.409128 -257.450538
L 267.140403 -257.084064
L 265.871678 -256.723904
L 264.602953 -256.369855
L 263.334229 -256.021709
L 262.065504 -255.679248
L 260.796779 -255.34225
L 259.528054 -255.010485
L 258.25933 -254.683717
L 256.990605 -254.361704
L 255.72188 -254.044197
L 254.453155 -253.730941
L 253.184431 -253.421678
L 251.915706 -253.116141
L 250.646981 -252.81406
L 249.378256 -252.515159
L 248.109532 -252.219158
L 246.840807 -251.925771
L 245.572082 -251.634709
L 244.303357 -251.345678
L 243.034633 -251.05838
L 241.765908 -250.772516
L 240.497183 -250.487778
L 239.228458 -250.20386
L 237.959734 -249.920451
L 236.691009 -249.637236
L 235.422284 -249.3539
L 234.153559 -249.070125
L 232.884834 -248.785589
L 231.61611 -248.499971
L 230.347385 -248.212948
L 229.07866 -247.924195
L 227.809935 -247.633386
L 226.541211 -247.340195
L 225.272486 -247.044295
L 224.003761 -246.74536
L 222.735036 -246.443063
L 221.466312 -246.137077
L 220.197587 -245.827077
L 218.928862 -245.512739
L 217.660137 -245.193738
L 216.391413 -244.869754
L 215.122688 -244.540465
L 213.853963 -244.205554
L 212.585238 -243.864704
L 211.316514 -243.517603
L 210.047789 -243.163939
L 208.779064 -242.803406
L 207.510339 -242.435698
L 206.241614 -242.060516
L 204.97289 -241.677563
L 203.704165 -241.286545
L 202.43544 -240.887175
L 201.166715 -240.47917
L 199.897991 -240.062249
L 198.629266 -239.63614
L 197.360541 -239.200575
L 196.091816 -238.755289
L 194.823092 -238.300027
L 193.554367 -237.834538
L 192.285642 -237.358577
L 191.016917 -237.708561
L 189.748193 -238.747922
L 188.479468 -239.775158
L 187.210743 -240.789431
L 185.942018 -241.789911
L 184.673294 -242.775777
L 183.404569 -243.746217
L 182.135844 -244.700426
L 180.867119 -245.637613
L 179.598394 -246.556994
L 178.32967 -247.457796
L 177.060945 -248.339257
L 175.79222 -249.200629
L 174.523495 -250.041172
L 173.254771 -250.860162
L 171.986046 -251.656884
L 170.717321 -252.430638
L 169.448596 -253.180739
L 168.179872 -253.906513
L 166.911147 -254.607301
L 165.642422 -255.282459
L 164.373697 -255.931358
L 163.104973 -256.553383
L 161.836248 -257.147935
L 160.567523 -257.714432
L 159.298798 -258.252307
L 158.030074 -258.761009
L 156.761349 -259.240004
L 155.492624 -259.688776
L 154.223899 -260.106825
L 152.955174 -260.49367
L 151.68645 -260.848844
L 150.417725 -261.171903
L 149.149 -261.462419
L 147.880275 -261.71998
L 146.611551 -261.944197
L 145.342826 -262.134696
L 144.074101 -262.291125
L 142.805376 -262.413149
L 141.536652 -262.500453
L 140.267927 -262.552742
L 138.999202 -262.569741
L 137.730477 -262.551192
L 136.461753 -262.496859
L 135.193028 -262.406527
L 133.924303 -262.279998
L 132.655578 -262.117098
L 131.386854 -261.917668
L 130.118129 -261.681575
L 128.849404 -261.408702
L 127.580679 -261.098954
L 126.311955 -260.752256
L 125.04323 -260.368554
L 123.774505 -259.947814
L 122.50578 -259.490021
L 121.237055 -258.995181
L 119.968331 -258.463323
L 118.699606 -257.894492
L 117.430881 -257.288756
L 116.162156 -256.646201
L 114.893432 -255.966935
L 113.624707 -255.251085
L 112.355982 -254.498798
L 111.087257 -253.71024
L 109.818533 -252.885598
L 108.549808 -252.025076
L 107.281083 -251.1289
L 106.012358 -250.197314
L 104.743634 -249.230579
L 103.474909 -248.228979
L 102.206184 -247.192812
L 100.937459 -246.122398
L 99.668735 -245.018074
L 98.40001 -243.880193
L 97.131285 -242.709127
L 95.86256 -241.505268
L 94.593835 -240.269021
L 93.325111 -239.000811
L 92.056386 -237.701077
L 90.787661 -236.370277
L 89.518936 -235.008885
L 88.250212 -233.617388
L 86.981487 -232.196291
L 85.712762 -230.746113
L 84.444037 -229.26739
L 83.175313 -227.760669
L 81.906588 -226.226514
L 80.637863 -224.665502
L 79.369138 -223.078222
L 78.100414 -221.46528
L 76.831689 -219.827291
L 75.562964 -218.164883
L 74.294239 -216.478698
L 73.025515 -214.769387
L 71.75679 -213.037615
L 70.488065 -211.284056
L 69.21934 -209.509394
L 67.950615 -207.714325
L 66.681891 -205.899552
L 65.413166 -204.065791
L 64.144441 -202.213762
L 62.875716 -200.344197
L 61.606992 -198.457835
L 60.338267 -196.555421
L 59.069542 -194.637709
L 57.800817 -192.705459
L 56.532093 -190.759436
z
" style="stroke: #dd6b20; stroke-opacity: 0.18"/>
    </defs>
    <g clip-path="url(#pb4e97cf935)">
     <use xlink:href="#m9ce69b677f" x="0" y="351.708714" style="fill: #dd6b20; fill-opacity: 0.18; stroke: #dd6b20; stroke-opacity: 0.18"/>
    </g>
   </g>
   <g id="PolyCollection_2">
    <defs>
     <path id="m5d8071b094" d="M 56.532093 -163.197577
L 56.532093 -108.07386
L 57.800817 -109.406705
L 59.069542 -110.745526
L 60.338267 -112.089797
L 61.606992 -113.438991
L 62.875716 -114.792578
L 64.144441 -116.150026
L 65.413166 -117.510803
L 66.681891 -118.874379
L 67.950615 -120.240219
L 69.21934 -121.607793
L 70.488065 -122.976567
L 71.75679 -124.346012
L 73.025515 -125.715597
L 74.294239 -127.084795
L 75.562964 -128.453079
L 76.831689 -129.819925
L 78.100414 -131.184813
L 79.369138 -132.547223
L 80.637863 -133.90664
L 81.906588 -135.262554
L 83.175313 -136.614457
L 84.444037 -137.961845
L 85.712762 -139.304219
L 86.981487 -140.641086
L 88.250212 -141.971958
L 89.518936 -143.29635
L 90.787661 -144.613787
L 92.056386 -145.923796
L 93.325111 -147.225914
L 94.593835 -148.519682
L 95.86256 -149.80465
L 97.131285 -151.080374
L 98.40001 -152.346418
L 99.668735 -153.602354
L 100.937459 -154.847762
L 102.206184 -156.082231
L 103.474909 -157.305357
L 104.743634 -158.516747
L 106.012358 -159.716015
L 107.281083 -160.902787
L 108.549808 -162.076696
L 109.818533 -163.237385
L 111.087257 -164.38451
L 112.355982 -165.517735
L 113.624707 -166.636733
L 114.893432 -167.741191
L 116.162156 -168.830804
L 117.430881 -169.905279
L 118.699606 -170.964336
L 119.968331 -172.007703
L 121.237055 -173.035123
L 122.50578 -174.046347
L 123.774505 -175.04114
L 125.04323 -176.01928
L 126.311955 -176.980555
L 127.580679 -177.924765
L 128.849404 -178.851725
L 130.118129 -179.761258
L 131.386854 -180.653204
L 132.655578 -181.527413
L 133.924303 -182.383748
L 135.193028 -183.222085
L 136.461753 -184.042312
L 137.730477 -184.844332
L 138.999202 -185.628057
L 140.267927 -186.393417
L 141.536652 -187.14035
L 142.805376 -187.868809
L 144.074101 -188.57876
L 145.342826 -189.270183
L 146.611551 -189.943068
L 147.880275 -190.597421
L 149.149 -191.233259
L 150.417725 -191.850611
L 151.68645 -192.449522
L 152.955174 -193.030046
L 154.223899 -193.592252
L 155.492624 -194.136221
L 156.761349 -194.662046
L 158.030074 -195.169833
L 159.298798 -195.659701
L 160.567523 -196.131779
L 161.836248 -196.58621
L 163.104973 -197.023148
L 164.373697 -197.44276
L 165.642422 -197.845224
L 166.911147 -198.230729
L 168.179872 -198.599476
L 169.448596 -198.951677
L 170.717321 -199.287555
L 171.986046 -199.607345
L 173.254771 -199.911291
L 174.523495 -200.199649
L 175.79222 -200.472685
L 177.060945 -200.730674
L 178.32967 -200.973903
L 179.598394 -201.202667
L 180.867119 -201.417271
L 182.135844 -201.618029
L 183.404569 -201.805265
L 184.673294 -201.979311
L 185.942018 -202.140508
L 187.210743 -202.289205
L 188.479468 -202.425758
L 189.748193 -202.550534
L 191.016917 -202.663903
L 192.285642 -202.415919
L 193.554367 -201.739109
L 194.823092 -201.052504
L 196.091816 -200.356816
L 197.360541 -199.65276
L 198.629266 -198.941057
L 199.897991 -198.222433
L 201.166715 -197.49762
L 202.43544 -196.767353
L 203.704165 -196.032369
L 204.97289 -195.293412
L 206.241614 -194.551225
L 207.510339 -193.806556
L 208.779064 -193.060155
L 210.047789 -192.312772
L 211.316514 -191.565158
L 212.585238 -190.818067
L 213.853963 -190.07225
L 215.122688 -189.328461
L 216.391413 -188.587451
L 217.660137 -187.84997
L 218.928862 -187.116768
L 220.197587 -186.388592
L 221.466312 -185.666187
L 222.735036 -184.950293
L 224.003761 -184.24165
L 225.272486 -183.540993
L 226.541211 -182.849051
L 227.809935 -182.166551
L 229.07866 -181.494213
L 230.347385 -180.832753
L 231.61611 -180.182881
L 232.884834 -179.545299
L 234.153559 -178.920705
L 235.422284 -178.309787
L 236.691009 -177.713227
L 237.959734 -177.131699
L 239.228458 -176.565869
L 240.497183 -176.016393
L 241.765908 -175.483919
L 243.034633 -174.969086
L 244.303357 -174.472521
L 245.572082 -173.994842
L 246.840807 -173.536658
L 248.109532 -173.098564
L 249.378256 -172.681145
L 250.646981 -172.284974
L 251.915706 -171.910614
L 253.184431 -171.558613
L 254.453155 -171.229508
L 255.72188 -170.923821
L 256.990605 -170.642063
L 258.25933 -170.38473
L 259.528054 -170.152305
L 260.796779 -169.945256
L 262.065504 -169.764037
L 263.334229 -169.609086
L 264.602953 -169.480828
L 265.871678 -169.379672
L 267.140403 -169.306011
L 268.409128 -169.260222
L 269.677853 -169.242668
L 270.946577 -169.253693
L 272.215302 -169.293627
L 273.484027 -169.362782
L 274.752752 -169.461453
L 276.021476 -169.589921
L 277.290201 -169.748445
L 278.558926 -169.937271
L 279.827651 -170.156625
L 281.096375 -170.406717
L 282.3651 -170.687739
L 283.633825 -170.999864
L 284.90255 -171.343249
L 286.171274 -171.718032
L 287.439999 -172.124332
L 288.708724 -172.562252
L 289.977449 -173.031875
L 291.246173 -173.533267
L 292.514898 -174.066474
L 293.783623 -174.631526
L 295.052348 -175.228432
L 296.321073 -175.857185
L 297.589797 -176.517759
L 298.858522 -177.210108
L 300.127247 -177.934171
L 301.395972 -178.689865
L 302.664696 -179.477091
L 303.933421 -180.295732
L 305.202146 -181.145651
L 306.470871 -182.026696
L 307.739595 -182.938694
L 309.00832 -183.881456
L 309.00832 -243.496739
L 309.00832 -243.496739
L 307.739595 -242.764597
L 306.470871 -242.048319
L 305.202146 -241.348014
L 303.933421 -240.663781
L 302.664696 -239.995708
L 301.395972 -239.343868
L 300.127247 -238.708326
L 298.858522 -238.089132
L 297.589797 -237.486324
L 296.321073 -236.899931
L 295.052348 -236.329965
L 293.783623 -235.77643
L 292.514898 -235.239317
L 291.246173 -234.718603
L 289.977449 -234.214255
L 288.708724 -233.726227
L 287.439999 -233.254461
L 286.171274 -232.798887
L 284.90255 -232.359423
L 283.633825 -231.935975
L 282.3651 -231.528437
L 281.096375 -231.136693
L 279.827651 -230.760612
L 278.558926 -230.400055
L 277.290201 -230.054868
L 276.021476 -229.724887
L 274.752752 -229.409939
L 273.484027 -229.109836
L 272.215302 -228.82438
L 270.946577 -228.553365
L 269.677853 -228.29657
L 268.409128 -228.053766
L 267.140403 -227.824713
L 265.871678 -227.60916
L 264.602953 -227.406846
L 263.334229 -227.217501
L 262.065504 -227.040844
L 260.796779 -226.876585
L 259.528054 -226.724425
L 258.25933 -226.584055
L 256.990605 -226.455157
L 255.72188 -226.337405
L 254.453155 -226.230464
L 253.184431 -226.13399
L 251.915706 -226.047632
L 250.646981 -225.971031
L 249.378256 -225.903821
L 248.109532 -225.845626
L 246.840807 -225.796066
L 245.572082 -225.754753
L 244.303357 -225.721292
L 243.034633 -225.695282
L 241.765908 -225.676317
L 240.497183 -225.663983
L 239.228458 -225.657863
L 237.959734 -225.657533
L 236.691009 -225.662566
L 235.422284 -225.672529
L 234.153559 -225.686985
L 232.884834 -225.705492
L 231.61611 -225.727608
L 230.347385 -225.752883
L 229.07866 -225.780868
L 227.809935 -225.811108
L 226.541211 -225.843147
L 225.272486 -225.876528
L 224.003761 -225.91079
L 222.735036 -225.945473
L 221.466312 -225.980113
L 220.197587 -226.014249
L 218.928862 -226.047415
L 217.660137 -226.079149
L 216.391413 -226.108986
L 215.122688 -226.136464
L 213.853963 -226.161119
L 212.585238 -226.182492
L 211.316514 -226.200121
L 210.047789 -226.21355
L 208.779064 -226.222322
L 207.510339 -226.225984
L 206.241614 -226.224086
L 204.97289 -226.216179
L 203.704165 -226.20182
L 202.43544 -226.180568
L 201.166715 -226.151987
L 199.897991 -226.115644
L 198.629266 -226.071113
L 197.360541 -226.01797
L 196.091816 -225.955798
L 194.823092 -225.884186
L 193.554367 -225.802728
L 192.285642 -225.711024
L 191.016917 -226.027008
L 189.748193 -226.682126
L 188.479468 -227.325358
L 187.210743 -227.956022
L 185.942018 -228.573443
L 184.673294 -229.176955
L 183.404569 -229.765899
L 182.135844 -230.339627
L 180.867119 -230.897499
L 179.598394 -231.438885
L 178.32967 -231.963165
L 177.060945 -232.46973
L 175.79222 -232.957981
L 174.523495 -233.427331
L 173.254771 -233.877205
L 171.986046 -234.307037
L 170.717321 -234.716277
L 169.448596 -235.104385
L 168.179872 -235.470834
L 166.911147 -235.81511
L 165.642422 -236.136714
L 164.373697 -236.435159
L 163.104973 -236.709971
L 161.836248 -236.960693
L 160.567523 -237.186881
L 159.298798 -237.388105
L 158.030074 -237.56395
L 156.761349 -237.714018
L 155.492624 -237.837924
L 154.223899 -237.935301
L 152.955174 -238.005795
L 151.68645 -238.04907
L 150.417725 -238.064806
L 149.149 -238.052699
L 147.880275 -238.01246
L 146.611551 -237.943821
L 145.342826 -237.846525
L 144.074101 -237.720337
L 142.805376 -237.565036
L 141.536652 -237.380419
L 140.267927 -237.166301
L 138.999202 -236.922513
L 137.730477 -236.648905
L 136.461753 -236.345343
L 135.193028 -236.011713
L 133.924303 -235.647915
L 132.655578 -235.253869
L 131.386854 -234.829514
L 130.118129 -234.374803
L 128.849404 -233.88971
L 127.580679 -233.374225
L 126.311955 -232.828356
L 125.04323 -232.25213
L 123.774505 -231.645589
L 122.50578 -231.008796
L 121.237055 -230.341828
L 119.968331 -229.644783
L 118.699606 -228.917773
L 117.430881 -228.16093
L 116.162156 -227.374402
L 114.893432 -226.558354
L 113.624707 -225.712968
L 112.355982 -224.838444
L 111.087257 -223.934997
L 109.818533 -223.00286
L 108.549808 -222.042283
L 107.281083 -221.053529
L 106.012358 -220.036881
L 104.743634 -218.992635
L 103.474909 -217.921105
L 102.206184 -216.822619
L 100.937459 -215.69752
L 99.668735 -214.546167
L 98.40001 -213.368934
L 97.131285 -212.16621
L 95.86256 -210.938395
L 94.593835 -209.685908
L 93.325111 -208.409178
L 92.056386 -207.10865
L 90.787661 -205.784781
L 89.518936 -204.43804
L 88.250212 -203.068911
L 86.981487 -201.677889
L 85.712762 -200.265482
L 84.444037 -198.832208
L 83.175313 -197.378598
L 81.906588 -195.905194
L 80.637863 -194.412548
L 79.369138 -192.901223
L 78.100414 -191.371791
L 76.831689 -189.824835
L 75.562964 -188.260948
L 74.294239 -186.68073
L 73.025515 -185.084791
L 71.75679 -183.473747
L 70.488065 -181.848226
L 69.21934 -180.20886
L 67.950615 -178.55629
L 66.681891 -176.891161
L 65.413166 -175.214128
L 64.144441 -173.52585
L 62.875716 -171.826991
L 61.606992 -170.11822
L 60.338267 -168.400213
L 59.069542 -166.673648
L 57.800817 -164.939207
L 56.532093 -163.197577
z
" style="stroke: #dd6b20; stroke-opacity: 0.25"/>
    </defs>
    <g clip-path="url(#pb4e97cf935)">
     <use xlink:href="#m5d8071b094" x="0" y="351.708714" style="fill: #dd6b20; fill-opacity: 0.25; stroke: #dd6b20; stroke-opacity: 0.25"/>
    </g>
   </g>
   <g id="matplotlib.axis_1">
    <g id="xtick_1">
     <g id="line2d_1">
      <defs>
       <path id="mc36d92b763" d="M 0 0
L 0 3.5
" style="stroke: #2d3748; stroke-width: 0.8"/>
      </defs>
      <g>
       <use xlink:href="#mc36d92b763" x="56.532093" y="280.836332" style="fill: #2d3748; stroke: #2d3748; stroke-width: 0.8"/>
      </g>
     </g>
     <g id="text_1">
      <text style="fill: #2d3748; font: 7px 'DejaVu Sans', 'Bitstream Vera Sans', 'Computer Modern Sans Serif', 'Lucida Grande', 'Verdana', 'Geneva', 'Lucid', 'Arial', 'Helvetica', 'Avant Garde', sans-serif; text-anchor: middle" x="56.532093" y="293.155238" transform="rotate(-0 56.532093 293.155238)">0</text>
     </g>
    </g>
    <g id="xtick_2">
     <g id="line2d_2">
      <g>
       <use xlink:href="#mc36d92b763" x="107.027338" y="280.836332" style="fill: #2d3748; stroke: #2d3748; stroke-width: 0.8"/>
      </g>
     </g>
     <g id="text_2">
      <text style="fill: #2d3748; font: 7px 'DejaVu Sans', 'Bitstream Vera Sans', 'Computer Modern Sans Serif', 'Lucida Grande', 'Verdana', 'Geneva', 'Lucid', 'Arial', 'Helvetica', 'Avant Garde', sans-serif; text-anchor: middle" x="107.027338" y="293.155238" transform="rotate(-0 107.027338 293.155238)">1</text>
     </g>
    </g>
    <g id="xtick_3">
     <g id="line2d_3">
      <g>
       <use xlink:href="#mc36d92b763" x="157.522584" y="280.836332" style="fill: #2d3748; stroke: #2d3748; stroke-width: 0.8"/>
      </g>
     </g>
     <g id="text_3">
      <text style="fill: #2d3748; font: 7px 'DejaVu Sans', 'Bitstream Vera Sans', 'Computer Modern Sans Serif', 'Lucida Grande', 'Verdana', 'Geneva', 'Lucid', 'Arial', 'Helvetica', 'Avant Garde', sans-serif; text-anchor: middle" x="157.522584" y="293.155238" transform="rotate(-0 157.522584 293.155238)">2</text>
     </g>
    </g>
    <g id="xtick_4">
     <g id="line2d_4">
      <g>
       <use xlink:href="#mc36d92b763" x="208.017829" y="280.836332" style="fill: #2d3748; stroke: #2d3748; stroke-width: 0.8"/>
      </g>
     </g>
     <g id="text_4">
      <text style="fill: #2d3748; font: 7px 'DejaVu Sans', 'Bitstream Vera Sans', 'Computer Modern Sans Serif', 'Lucida Grande', 'Verdana', 'Geneva', 'Lucid', 'Arial', 'Helvetica', 'Avant Garde', sans-serif; text-anchor: middle" x="208.017829" y="293.155238" transform="rotate(-0 208.017829 293.155238)">3</text>
     </g>
    </g>
    <g id="xtick_5">
     <g id="line2d_5">
      <g>
       <use xlink:href="#mc36d92b763" x="258.513075" y="280.836332" style="fill: #2d3748; stroke: #2d3748; stroke-width: 0.8"/>
      </g>
     </g>
     <g id="text_5">
      <text style="fill: #2d3748; font: 7px 'DejaVu Sans', 'Bitstream Vera Sans', 'Computer Modern Sans Serif', 'Lucida Grande', 'Verdana', 'Geneva', 'Lucid', 'Arial', 'Helvetica', 'Avant Garde', sans-serif; text-anchor: middle" x="258.513075" y="293.155238" transform="rotate(-0 258.513075 293.155238)">4</text>
     </g>
    </g>
    <g id="xtick_6">
     <g id="line2d_6">
      <g>
       <use xlink:href="#mc36d92b763" x="309.00832" y="280.836332" style="fill: #2d3748; stroke: #2d3748; stroke-width: 0.8"/>
      </g>
     </g>
     <g id="text_6">
      <text style="fill: #2d3748; font: 7px 'DejaVu Sans', 'Bitstream Vera Sans', 'Computer Modern Sans Serif', 'Lucida Grande', 'Verdana', 'Geneva', 'Lucid', 'Arial', 'Helvetica', 'Avant Garde', sans-serif; text-anchor: middle" x="309.00832" y="293.155238" transform="rotate(-0 309.00832 293.155238)">5</text>
     </g>
    </g>
    <g id="text_7">
     <text style="fill: #2d3748; font: 9px 'DejaVu Sans', 'Bitstream Vera Sans', 'Computer Modern Sans Serif', 'Lucida Grande', 'Verdana', 'Geneva', 'Lucid', 'Arial', 'Helvetica', 'Avant Garde', sans-serif; text-anchor: middle" x="182.770206" y="305.449613" transform="rotate(-0 182.770206 305.449613)">x</text>
    </g>
   </g>
   <g id="matplotlib.axis_2">
    <g id="ytick_1">
     <g id="line2d_7">
      <defs>
       <path id="m6c2e7563dd" d="M 0 0
L -3.5 0
" style="stroke: #2d3748; stroke-width: 0.8"/>
      </defs>
      <g>
       <use xlink:href="#m6c2e7563dd" x="43.908281" y="254.314291" style="fill: #2d3748; stroke: #2d3748; stroke-width: 0.8"/>
      </g>
     </g>
     <g id="text_8">
      <text style="fill: #2d3748; font: 7px 'DejaVu Sans', 'Bitstream Vera Sans', 'Computer Modern Sans Serif', 'Lucida Grande', 'Verdana', 'Geneva', 'Lucid', 'Arial', 'Helvetica', 'Avant Garde', sans-serif; text-anchor: end" x="36.908281" y="256.973744" transform="rotate(-0 36.908281 256.973744)">−0.5</text>
     </g>
    </g>
    <g id="ytick_2">
     <g id="line2d_8">
      <g>
       <use xlink:href="#m6c2e7563dd" x="43.908281" y="216.072996" style="fill: #2d3748; stroke: #2d3748; stroke-width: 0.8"/>
      </g>
     </g>
     <g id="text_9">
      <text style="fill: #2d3748; font: 7px 'DejaVu Sans', 'Bitstream Vera Sans', 'Computer Modern Sans Serif', 'Lucida Grande', 'Verdana', 'Geneva', 'Lucid', 'Arial', 'Helvetica', 'Avant Garde', sans-serif; text-anchor: end" x="36.908281" y="218.732449" transform="rotate(-0 36.908281 218.732449)">0.0</text>
     </g>
    </g>
    <g id="ytick_3">
     <g id="line2d_9">
      <g>
       <use xlink:href="#m6c2e7563dd" x="43.908281" y="177.831701" style="fill: #2d3748; stroke: #2d3748; stroke-width: 0.8"/>
      </g>
     </g>
     <g id="text_10">
      <text style="fill: #2d3748; font: 7px 'DejaVu Sans', 'Bitstream Vera Sans', 'Computer Modern Sans Serif', 'Lucida Grande', 'Verdana', 'Geneva', 'Lucid', 'Arial', 'Helvetica', 'Avant Garde', sans-serif; text-anchor: end" x="36.908281" y="180.491154" transform="rotate(-0 36.908281 180.491154)">0.5</text>
     </g>
    </g>
    <g id="ytick_4">
     <g id="line2d_10">
      <g>
       <use xlink:href="#m6c2e7563dd" x="43.908281" y="139.590406" style="fill: #2d3748; stroke: #2d3748; stroke-width: 0.8"/>
      </g>
     </g>
     <g id="text_11">
      <text style="fill: #2d3748; font: 7px 'DejaVu Sans', 'Bitstream Vera Sans', 'Computer Modern Sans Serif', 'Lucida Grande', 'Verdana', 'Geneva', 'Lucid', 'Arial', 'Helvetica', 'Avant Garde', sans-serif; text-anchor: end" x="36.908281" y="142.249859" transform="rotate(-0 36.908281 142.249859)">1.0</text>
     </g>
    </g>
    <g id="ytick_5">
     <g id="line2d_11">
      <g>
       <use xlink:href="#m6c2e7563dd" x="43.908281" y="101.34911" style="fill: #2d3748; stroke: #2d3748; stroke-width: 0.8"/>
      </g>
     </g>
     <g id="text_12">
      <text style="fill: #2d3748; font: 7px 'DejaVu Sans', 'Bitstream Vera Sans', 'Computer Modern Sans Serif', 'Lucida Grande', 'Verdana', 'Geneva', 'Lucid', 'Arial', 'Helvetica', 'Avant Garde', sans-serif; text-anchor: end" x="36.908281" y="104.008564" transform="rotate(-0 36.908281 104.008564)">1.5</text>
     </g>
    </g>
    <g id="text_13">
     <text style="fill: #2d3748; font: 9px 'DejaVu Sans', 'Bitstream Vera Sans', 'Computer Modern Sans Serif', 'Lucida Grande', 'Verdana', 'Geneva', 'Lucid', 'Arial', 'Helvetica', 'Avant Garde', sans-serif; text-anchor: middle" x="14.038594" y="174.800523" transform="rotate(-90 14.038594 174.800523)">f(x)</text>
    </g>
   </g>
   <g id="line2d_12">
    <path d="M 56.532093 216.072996
L 71.75679 197.798835
L 79.369138 188.984492
L 85.712762 181.923864
L 92.056386 175.192491
L 97.131285 170.085422
L 102.206184 165.256289
L 107.281083 160.730556
L 112.355982 156.530625
L 117.430881 152.67561
L 121.237055 150.020239
L 125.04323 147.573009
L 128.849404 145.337997
L 132.655578 143.318073
L 136.461753 141.514887
L 140.267927 139.928856
L 144.074101 138.559166
L 147.880275 137.403774
L 151.68645 136.459419
L 155.492624 135.721642
L 159.298798 135.184812
L 163.104973 134.842155
L 166.911147 134.685795
L 170.717321 134.706798
L 175.79222 134.993381
L 180.867119 135.55133
L 185.942018 136.351739
L 191.016917 137.363258
L 197.360541 138.87335
L 204.97289 140.953919
L 216.391413 144.360496
L 227.809935 147.719885
L 235.422284 149.717557
L 241.765908 151.128596
L 246.840807 152.042352
L 251.915706 152.729591
L 256.990605 153.160104
L 262.065504 153.306274
L 265.871678 153.214298
L 269.677853 152.939095
L 273.484027 152.472406
L 277.290201 151.807058
L 281.096375 150.937009
L 284.90255 149.857378
L 288.708724 148.564475
L 292.514898 147.055819
L 296.321073 145.330157
L 300.127247 143.387466
L 303.933421 141.228958
L 307.739595 138.857069
L 309.00832 138.019617
L 309.00832 138.019617
" clip-path="url(#pb4e97cf935)" style="fill: none; stroke: #dd6b20; stroke-width: 2; stroke-linecap: square"/>
   </g>
   <g id="patch_3">
    <path d="M 43.908281 280.836332
L 43.908281 68.764714
" style="fill: none; stroke: #e2e8f0; stroke-width: 1.5; stroke-linejoin: miter; stroke-linecap: square"/>
   </g>
   <g id="patch_4">
    <path d="M 321.632132 280.836332
L 321.632132 68.764714
" style="fill: none; stroke: #e2e8f0; stroke-width: 1.5; stroke-linejoin: miter; stroke-linecap: square"/>
   </g>
   <g id="patch_5">
    <path d="M 43.908281 280.836332
L 321.632132 280.836332
" style="fill: none; stroke: #e2e8f0; stroke-width: 1.5; stroke-linejoin: miter; stroke-linecap: square"/>
   </g>
   <g id="patch_6">
    <path d="M 43.908281 68.764714
L 321.632132 68.764714
" style="fill: none; stroke: #e2e8f0; stroke-width: 1.5; stroke-linejoin: miter; stroke-linecap: square"/>
   </g>
   <g id="text_14">
    <text style="fill: #dd6b20; font: 700 11px 'DejaVu Sans', 'Bitstream Vera Sans', 'Computer Modern Sans Serif', 'Lucida Grande', 'Verdana', 'Geneva', 'Lucid', 'Arial', 'Helvetica', 'Avant Garde', sans-serif; text-anchor: middle" x="182.770206" y="58.764714" transform="rotate(-0 182.770206 58.764714)">Bayesian Optimization (GP)</text>
   </g>
   <g id="PathCollection_1">
    <defs>
     <path id="m0d944aa824" d="M 0 3.162278
C 0.838646 3.162278 1.643056 2.82908 2.236068 2.236068
C 2.82908 1.643056 3.162278 0.838646 3.162278 0
C 3.162278 -0.838646 2.82908 -1.643056 2.236068 -2.236068
C 1.643056 -2.82908 0.838646 -3.162278 0 -3.162278
C -0.838646 -3.162278 -1.643056 -2.82908 -2.236068 -2.236068
C -2.82908 -1.643056 -3.162278 -0.838646 -3.162278 0
C -3.162278 0.838646 -2.82908 1.643056 -2.236068 2.236068
C -1.643056 2.82908 -0.838646 3.162278 0 3.162278
z
" style="stroke: #2d3748"/>
    </defs>
    <g clip-path="url(#pb4e97cf935)">
     <use xlink:href="#m0d944aa824" x="81.779715" y="179.801965" style="fill: #2d3748; stroke: #2d3748"/>
     <use xlink:href="#m0d944aa824" x="132.274961" y="145.292135" style="fill: #2d3748; stroke: #2d3748"/>
     <use xlink:href="#m0d944aa824" x="197.91878" y="138.891731" style="fill: #2d3748; stroke: #2d3748"/>
     <use xlink:href="#m0d944aa824" x="268.612124" y="151.476723" style="fill: #2d3748; stroke: #2d3748"/>
    </g>
   </g>
   <g id="legend_1">
    <g id="patch_7">
     <path d="M 48.808281 115.478777
L 107.398281 115.478777
Q 108.798281 115.478777 108.798281 114.078777
L 108.798281 73.664714
Q 108.798281 72.264714 107.398281 72.264714
L 48.808281 72.264714
Q 47.408281 72.264714 47.408281 73.664714
L 47.408281 114.078777
Q 47.408281 115.478777 48.808281 115.478777
z
" style="fill: #ffffff; opacity: 0.8; stroke: #cccccc; stroke-linejoin: miter"/>
    </g>
    <g id="line2d_13">
     <path d="M 50.208281 77.934714
L 57.208281 77.934714
L 64.208281 77.934714
" style="fill: none; stroke: #dd6b20; stroke-width: 2; stroke-linecap: square"/>
    </g>
    <g id="text_15">
     <!-- mean $\mu(x)$ -->
     <g transform="translate(69.808281 80.384714)">
      <text>
       <tspan style="font: 7px 'DejaVu Sans'" x="0 6.818848 11.125488 15.415039 19.851562 26.530273 33.403809" y="-0.6875">mean ()</tspan>
       <tspan style="font: oblique 7px 'DejaVu Sans'" x="22.07666 29.26123" y="-0.6875">μx</tspan>
      </text>
     </g>
    </g>
    <g id="patch_8">
     <path d="M 50.208281 90.673621
L 64.208281 90.673621
L 64.208281 85.773621
L 50.208281 85.773621
z
" style="fill: #dd6b20; fill-opacity: 0.18; stroke: #dd6b20; stroke-opacity: 0.18; stroke-linejoin: miter"/>
    </g>
    <g id="text_16">
     <!-- $\pm 2\sigma$ -->
     <g transform="translate(69.808281 90.673621)">
      <text>
       <tspan style="font: 7px 'DejaVu Sans'" x="0 5.865234" y="-0.796875">±2</tspan>
       <tspan style="font: oblique 7px 'DejaVu Sans'" x="10.318848" y="-0.796875">σ</tspan>
      </text>
     </g>
    </g>
    <g id="patch_9">
     <path d="M 50.208281 100.948308
L 64.208281 100.948308
L 64.208281 96.048308
L 50.208281 96.048308
z
" style="fill: #dd6b20; fill-opacity: 0.25; stroke: #dd6b20; stroke-opacity: 0.25; stroke-linejoin: miter"/>
    </g>
    <g id="text_17">
     <!-- $\pm 1\sigma$ -->
     <g transform="translate(69.808281 100.948308)">
      <text>
       <tspan style="font: 7px 'DejaVu Sans'" x="0 5.865234" y="-0.890625">±1</tspan>
       <tspan style="font: oblique 7px 'DejaVu Sans'" x="10.318848" y="-0.890625">σ</tspan>
      </text>
     </g>
    </g>
    <g id="PathCollection_2">
     <g>
      <use xlink:href="#m0d944aa824" x="57.208281" y="109.385496" style="fill: #2d3748; stroke: #2d3748"/>
     </g>
    </g>
    <g id="text_18">
     <text style="font: 7px 'DejaVu Sans', 'Bitstream Vera Sans', 'Computer Modern Sans Serif', 'Lucida Grande', 'Verdana', 'Geneva', 'Lucid', 'Arial', 'Helvetica', 'Avant Garde', sans-serif; text-anchor: start" x="69.808281" y="111.222996" transform="rotate(-0 69.808281 111.222996)">observed</text>
    </g>
   </g>
  </g>
  <g id="axes_2">
   <g id="patch_10">
    <path d="M 368.182132 280.836332
L 645.905982 280.836332
L 645.905982 68.764714
L 368.182132 68.764714
L 368.182132 280.836332
z
" style="fill: none"/>
   </g>
   <g id="PolyCollection_3">
    <defs>
     <path id="m53a1cffadd" d="M 380.805943 -80.512001
L 380.805943 -80.576688
L 382.074668 -80.59099
L 383.343392 -80.60821
L 384.612117 -80.628888
L 385.880842 -80.653653
L 387.149567 -80.683233
L 388.418291 -80.718467
L 389.687016 -80.760323
L 390.955741 -80.809911
L 392.224466 -80.8685
L 393.493191 -80.937536
L 394.761915 -81.01866
L 396.03064 -81.113728
L 397.299365 -81.224831
L 398.56809 -81.35432
L 399.836814 -81.50482
L 401.105539 -81.679259
L 402.374264 -81.880886
L 403.642989 -82.113293
L 404.911713 -82.380434
L 406.180438 -82.686642
L 407.449163 -83.036651
L 408.717888 -83.435601
L 409.986612 -83.889056
L 411.255337 -84.403005
L 412.524062 -84.983864
L 413.792787 -85.638474
L 415.061511 -86.374086
L 416.330236 -87.198348
L 417.598961 -88.119274
L 418.867686 -89.145214
L 420.13641 -90.284806
L 421.405135 -91.546924
L 422.67386 -92.940616
L 423.942585 -94.475025
L 425.21131 -96.159306
L 426.480034 -98.00253
L 427.748759 -100.013575
L 429.017484 -102.201009
L 430.286209 -104.572967
L 431.554933 -107.137009
L 432.823658 -109.899983
L 434.092383 -112.867872
L 435.361108 -116.045646
L 436.629832 -119.437102
L 437.898557 -123.044712
L 439.167282 -126.869468
L 440.436007 -130.910738
L 441.704731 -135.166126
L 442.973456 -139.631337
L 444.242181 -144.300074
L 445.510906 -149.16393
L 446.77963 -154.212313
L 448.048355 -159.432393
L 449.31708 -164.809068
L 450.585805 -170.324964
L 451.85453 -175.960457
L 453.123254 -181.693734
L 454.391979 -187.500882
L 455.660704 -193.356009
L 456.929429 -199.231399
L 458.198153 -205.0977
L 459.466878 -210.924143
L 460.735603 -216.678789
L 462.004328 -222.328802
L 463.273052 -227.840752
L 464.541777 -233.18093
L 465.810502 -238.315689
L 467.079227 -243.211784
L 468.347951 -247.836734
L 469.616676 -252.159174
L 470.885401 -256.14921
L 472.154126 -259.778759
L 473.42285 -263.021882
L 474.691575 -265.85509
L 475.9603 -268.25763
L 477.229025 -270.211736
L 478.49775 -271.702854
L 479.766474 -272.719817
L 481.035199 -273.254993
L 482.303924 -273.304381
L 483.572649 -272.86766
L 484.841373 -271.9482
L 486.110098 -270.553024
L 487.378823 -268.692722
L 488.647548 -266.381324
L 489.916272 -263.636134
L 491.184997 -260.477522
L 492.453722 -256.928687
L 493.722447 -253.015384
L 494.991171 -248.765634
L 496.259896 -244.209403
L 497.528621 -239.37828
L 498.797346 -234.305136
L 500.06607 -229.023784
L 501.334795 -223.56864
L 502.60352 -217.974392
L 503.872245 -212.275679
L 505.14097 -206.506793
L 506.409694 -200.701392
L 507.678419 -194.892245
L 508.947144 -189.111
L 510.215869 -183.387983
L 511.484593 -177.752019
L 512.753318 -172.230296
L 514.022043 -166.84825
L 515.290768 -161.629478
L 516.559492 -156.595688
L 517.828217 -151.766661
L 519.096942 -147.16025
L 520.365667 -142.792384
L 521.634391 -138.677101
L 522.903116 -134.826583
L 524.171841 -131.251206
L 525.440566 -127.959593
L 526.70929 -124.958663
L 527.978015 -122.253689
L 529.24674 -119.848338
L 530.515465 -117.744712
L 531.784189 -115.943379
L 533.052914 -114.443385
L 534.321639 -113.24227
L 535.590364 -112.336055
L 536.859089 -111.719238
L 538.127813 -111.384766
L 539.396538 -111.324016
L 540.665263 -111.526762
L 541.933988 -111.981155
L 543.202712 -112.673698
L 544.471437 -113.589245
L 545.740162 -114.711002
L 547.008887 -116.02056
L 548.277611 -117.497937
L 549.546336 -119.121667
L 550.815061 -120.868899
L 552.083786 -122.715544
L 553.35251 -124.636447
L 554.621235 -126.605597
L 555.88996 -128.596366
L 557.158685 -130.581779
L 558.427409 -132.534814
L 559.696134 -134.428717
L 560.964859 -136.237337
L 562.233584 -137.935468
L 563.502309 -139.499193
L 564.771033 -140.906221
L 566.039758 -142.136208
L 567.308483 -143.171059
L 568.577208 -143.995193
L 569.845932 -144.595773
L 571.114657 -144.962892
L 572.383382 -145.089711
L 573.652107 -144.972532
L 574.920831 -144.610833
L 576.189556 -144.007225
L 577.458281 -143.16737
L 578.727006 -142.099828
L 579.99573 -140.815866
L 581.264455 -139.329209
L 582.53318 -137.655761
L 583.801905 -135.813282
L 585.070629 -133.821047
L 586.339354 -131.69949
L 587.608079 -129.469827
L 588.876804 -127.153698
L 590.145529 -124.772799
L 591.414253 -122.348545
L 592.682978 -119.901746
L 593.951703 -117.452321
L 595.220428 -115.019037
L 596.489152 -112.619295
L 597.757877 -110.268947
L 599.026602 -107.982168
L 600.295327 -105.771354
L 601.564051 -103.647076
L 602.832776 -101.61806
L 604.101501 -99.691213
L 605.370226 -97.871677
L 606.63895 -96.162911
L 607.907675 -94.566799
L 609.1764 -93.083774
L 610.445125 -91.712963
L 611.713849 -90.452334
L 612.982574 -89.298852
L 614.251299 -88.24864
L 615.520024 -87.297129
L 616.788749 -86.439212
L 618.057473 -85.669383
L 619.326198 -84.981871
L 620.594923 -84.370754
L 621.863648 -83.830072
L 623.132372 -83.353915
L 624.401097 -82.936503
L 625.669822 -82.572255
L 626.938547 -82.255837
L 628.207271 -81.982202
L 629.475996 -81.746625
L 630.744721 -81.544712
L 632.013446 -81.372419
L 633.28217 -81.226048
L 633.28217 -80.512001
L 633.28217 -80.512001
L 632.013446 -80.512001
L 630.744721 -80.512001
L 629.475996 -80.512001
L 628.207271 -80.512001
L 626.938547 -80.512001
L 625.669822 -80.512001
L 624.401097 -80.512001
L 623.132372 -80.512001
L 621.863648 -80.512001
L 620.594923 -80.512001
L 619.326198 -80.512001
L 618.057473 -80.512001
L 616.788749 -80.512001
L 615.520024 -80.512001
L 614.251299 -80.512001
L 612.982574 -80.512001
L 611.713849 -80.512001
L 610.445125 -80.512001
L 609.1764 -80.512001
L 607.907675 -80.512001
L 606.63895 -80.512001
L 605.370226 -80.512001
L 604.101501 -80.512001
L 602.832776 -80.512001
L 601.564051 -80.512001
L 600.295327 -80.512001
L 599.026602 -80.512001
L 597.757877 -80.512001
L 596.489152 -80.512001
L 595.220428 -80.512001
L 593.951703 -80.512001
L 592.682978 -80.512001
L 591.414253 -80.512001
L 590.145529 -80.512001
L 588.876804 -80.512001
L 587.608079 -80.512001
L 586.339354 -80.512001
L 585.070629 -80.512001
L 583.801905 -80.512001
L 582.53318 -80.512001
L 581.264455 -80.512001
L 579.99573 -80.512001
L 578.727006 -80.512001
L 577.458281 -80.512001
L 576.189556 -80.512001
L 574.920831 -80.512001
L 573.652107 -80.512001
L 572.383382 -80.512001
L 571.114657 -80.512001
L 569.845932 -80.512001
L 568.577208 -80.512001
L 567.308483 -80.512001
L 566.039758 -80.512001
L 564.771033 -80.512001
L 563.502309 -80.512001
L 562.233584 -80.512001
L 560.964859 -80.512001
L 559.696134 -80.512001
L 558.427409 -80.512001
L 557.158685 -80.512001
L 555.88996 -80.512001
L 554.621235 -80.512001
L 553.35251 -80.512001
L 552.083786 -80.512001
L 550.815061 -80.512001
L 549.546336 -80.512001
L 548.277611 -80.512001
L 547.008887 -80.512001
L 545.740162 -80.512001
L 544.471437 -80.512001
L 543.202712 -80.512001
L 541.933988 -80.512001
L 540.665263 -80.512001
L 539.396538 -80.512001
L 538.127813 -80.512001
L 536.859089 -80.512001
L 535.590364 -80.512001
L 534.321639 -80.512001
L 533.052914 -80.512001
L 531.784189 -80.512001
L 530.515465 -80.512001
L 529.24674 -80.512001
L 527.978015 -80.512001
L 526.70929 -80.512001
L 525.440566 -80.512001
L 524.171841 -80.512001
L 522.903116 -80.512001
L 521.634391 -80.512001
L 520.365667 -80.512001
L 519.096942 -80.512001
L 517.828217 -80.512001
L 516.559492 -80.512001
L 515.290768 -80.512001
L 514.022043 -80.512001
L 512.753318 -80.512001
L 511.484593 -80.512001
L 510.215869 -80.512001
L 508.947144 -80.512001
L 507.678419 -80.512001
L 506.409694 -80.512001
L 505.14097 -80.512001
L 503.872245 -80.512001
L 502.60352 -80.512001
L 501.334795 -80.512001
L 500.06607 -80.512001
L 498.797346 -80.512001
L 497.528621 -80.512001
L 496.259896 -80.512001
L 494.991171 -80.512001
L 493.722447 -80.512001
L 492.453722 -80.512001
L 491.184997 -80.512001
L 489.916272 -80.512001
L 488.647548 -80.512001
L 487.378823 -80.512001
L 486.110098 -80.512001
L 484.841373 -80.512001
L 483.572649 -80.512001
L 482.303924 -80.512001
L 481.035199 -80.512001
L 479.766474 -80.512001
L 478.49775 -80.512001
L 477.229025 -80.512001
L 475.9603 -80.512001
L 474.691575 -80.512001
L 473.42285 -80.512001
L 472.154126 -80.512001
L 470.885401 -80.512001
L 469.616676 -80.512001
L 468.347951 -80.512001
L 467.079227 -80.512001
L 465.810502 -80.512001
L 464.541777 -80.512001
L 463.273052 -80.512001
L 462.004328 -80.512001
L 460.735603 -80.512001
L 459.466878 -80.512001
L 458.198153 -80.512001
L 456.929429 -80.512001
L 455.660704 -80.512001
L 454.391979 -80.512001
L 453.123254 -80.512001
L 451.85453 -80.512001
L 450.585805 -80.512001
L 449.31708 -80.512001
L 448.048355 -80.512001
L 446.77963 -80.512001
L 445.510906 -80.512001
L 444.242181 -80.512001
L 442.973456 -80.512001
L 441.704731 -80.512001
L 440.436007 -80.512001
L 439.167282 -80.512001
L 437.898557 -80.512001
L 436.629832 -80.512001
L 435.361108 -80.512001
L 434.092383 -80.512001
L 432.823658 -80.512001
L 431.554933 -80.512001
L 430.286209 -80.512001
L 429.017484 -80.512001
L 427.748759 -80.512001
L 426.480034 -80.512001
L 425.21131 -80.512001
L 423.942585 -80.512001
L 422.67386 -80.512001
L 421.405135 -80.512001
L 420.13641 -80.512001
L 418.867686 -80.512001
L 417.598961 -80.512001
L 416.330236 -80.512001
L 415.061511 -80.512001
L 413.792787 -80.512001
L 412.524062 -80.512001
L 411.255337 -80.512001
L 409.986612 -80.512001
L 408.717888 -80.512001
L 407.449163 -80.512001
L 406.180438 -80.512001
L 404.911713 -80.512001
L 403.642989 -80.512001
L 402.374264 -80.512001
L 401.105539 -80.512001
L 399.836814 -80.512001
L 398.56809 -80.512001
L 397.299365 -80.512001
L 396.03064 -80.512001
L 394.761915 -80.512001
L 393.493191 -80.512001
L 392.224466 -80.512001
L 390.955741 -80.512001
L 389.687016 -80.512001
L 388.418291 -80.512001
L 387.149567 -80.512001
L 385.880842 -80.512001
L 384.612117 -80.512001
L 383.343392 -80.512001
L 382.074668 -80.512001
L 380.805943 -80.512001
z
" style="stroke: #38a169; stroke-opacity: 0.15"/>
    </defs>
    <g clip-path="url(#p47425676f8)">
     <use xlink:href="#m53a1cffadd" x="0" y="351.708714" style="fill: #38a169; fill-opacity: 0.15; stroke: #38a169; stroke-opacity: 0.15"/>
    </g>
   </g>
   <g id="PolyCollection_4">
    <defs>
     <path id="m24f93f0e02" d="M 380.805943 -80.512001
L 380.805943 -118.367773
L 382.074668 -119.905244
L 383.343392 -121.466719
L 384.612117 -123.050267
L 385.880842 -124.653838
L 387.149567 -126.275265
L 388.418291 -127.912271
L 389.687016 -129.562474
L 390.955741 -131.223395
L 392.224466 -132.892465
L 393.493191 -134.567034
L 394.761915 -136.244381
L 396.03064 -137.921722
L 397.299365 -139.596222
L 398.56809 -141.265005
L 399.836814 -142.925166
L 401.105539 -144.573784
L 402.374264 -146.207933
L 403.642989 -147.824695
L 404.911713 -149.421173
L 406.180438 -150.994505
L 407.449163 -152.541878
L 408.717888 -154.060536
L 409.986612 -155.547803
L 411.255337 -157.001085
L 412.524062 -158.417892
L 413.792787 -159.795844
L 415.061511 -161.132687
L 416.330236 -162.426305
L 417.598961 -163.674726
L 418.867686 -164.876138
L 420.13641 -166.028897
L 421.405135 -167.131533
L 422.67386 -168.182762
L 423.942585 -169.181491
L 425.21131 -170.126822
L 426.480034 -171.018062
L 427.748759 -171.854723
L 429.017484 -172.636524
L 430.286209 -173.363397
L 431.554933 -174.035482
L 432.823658 -174.653131
L 434.092383 -175.216902
L 435.361108 -175.72756
L 436.629832 -176.186067
L 437.898557 -176.593582
L 439.167282 -176.951453
L 440.436007 -177.261206
L 441.704731 -177.524539
L 442.973456 -177.743315
L 444.242181 -177.919544
L 445.510906 -178.055378
L 446.77963 -178.153096
L 448.048355 -178.215092
L 449.31708 -178.243859
L 450.585805 -178.241977
L 451.85453 -178.212098
L 453.123254 -178.156931
L 454.391979 -178.079225
L 455.660704 -177.981758
L 456.929429 -177.867316
L 458.198153 -177.738679
L 459.466878 -177.59861
L 460.735603 -177.449834
L 462.004328 -177.295026
L 463.273052 -177.136797
L 464.541777 -176.977679
L 465.810502 -176.820111
L 467.079227 -176.666429
L 468.347951 -176.518851
L 469.616676 -176.379468
L 470.885401 -176.250231
L 472.154126 -176.132944
L 473.42285 -176.029257
L 474.691575 -175.940652
L 475.9603 -175.868443
L 477.229025 -175.813768
L 478.49775 -175.777586
L 479.766474 -175.760668
L 481.035199 -175.763604
L 482.303924 -175.786795
L 483.572649 -175.830454
L 484.841373 -175.89461
L 486.110098 -175.979105
L 487.378823 -176.083603
L 488.647548 -176.207588
L 489.916272 -176.350373
L 491.184997 -176.511106
L 492.453722 -176.688774
L 493.722447 -176.882213
L 494.991171 -177.090113
L 496.259896 -177.311032
L 497.528621 -177.543404
L 498.797346 -177.785545
L 500.06607 -178.035672
L 501.334795 -178.291908
L 502.60352 -178.552296
L 503.872245 -178.814812
L 505.14097 -179.077377
L 506.409694 -179.337873
L 507.678419 -179.594151
L 508.947144 -179.844049
L 510.215869 -180.085404
L 511.484593 -180.316068
L 512.753318 -180.533917
L 514.022043 -180.736873
L 515.290768 -180.922911
L 516.559492 -181.090076
L 517.828217 -181.236499
L 519.096942 -181.360406
L 520.365667 -181.460138
L 521.634391 -181.534159
L 522.903116 -181.581071
L 524.171841 -181.59963
L 525.440566 -181.588754
L 526.70929 -181.547537
L 527.978015 -181.47526
L 529.24674 -181.371403
L 530.515465 -181.235652
L 531.784189 -181.067911
L 533.052914 -180.868308
L 534.321639 -180.637202
L 535.590364 -180.375186
L 536.859089 -180.083096
L 538.127813 -179.762007
L 539.396538 -179.413238
L 540.665263 -179.038345
L 541.933988 -178.639122
L 543.202712 -178.217589
L 544.471437 -177.775986
L 545.740162 -177.316761
L 547.008887 -176.842553
L 548.277611 -176.356175
L 549.546336 -175.860594
L 550.815061 -175.358907
L 552.083786 -174.854309
L 553.35251 -174.350071
L 554.621235 -173.849501
L 555.88996 -173.355908
L 557.158685 -172.872569
L 558.427409 -172.402681
L 559.696134 -171.949326
L 560.964859 -171.515419
L 562.233584 -171.103673
L 563.502309 -170.716543
L 564.771033 -170.356192
L 566.039758 -170.024438
L 567.308483 -169.722716
L 568.577208 -169.452037
L 569.845932 -169.212953
L 571.114657 -169.00552
L 572.383382 -168.829274
L 573.652107 -168.683206
L 574.920831 -168.565743
L 576.189556 -168.474744
L 577.458281 -168.40749
L 578.727006 -168.360696
L 579.99573 -168.330516
L 581.264455 -168.312574
L 582.53318 -168.301985
L 583.801905 -168.293399
L 585.070629 -168.281045
L 586.339354 -168.258786
L 587.608079 -168.22018
L 588.876804 -168.158551
L 590.145529 -168.067058
L 591.414253 -167.938779
L 592.682978 -167.766792
L 593.951703 -167.544261
L 595.220428 -167.264521
L 596.489152 -166.921169
L 597.757877 -166.508144
L 599.026602 -166.019815
L 600.295327 -165.451058
L 601.564051 -164.797329
L 602.832776 -164.05473
L 604.101501 -163.220071
L 605.370226 -162.290916
L 606.63895 -161.265628
L 607.907675 -160.143396
L 609.1764 -158.924252
L 610.445125 -157.609087
L 611.713849 -156.199637
L 612.982574 -154.698477
L 614.251299 -153.108988
L 615.520024 -151.435327
L 616.788749 -149.682375
L 618.057473 -147.855684
L 619.326198 -145.961413
L 620.594923 -144.006256
L 621.863648 -141.997369
L 623.132372 -139.942283
L 624.401097 -137.848824
L 625.669822 -135.725026
L 626.938547 -133.579044
L 628.207271 -131.419067
L 629.475996 -129.253236
L 630.744721 -127.089563
L 632.013446 -124.935853
L 633.28217 -122.799638
L 633.28217 -80.512001
L 633.28217 -80.512001
L 632.013446 -80.512001
L 630.744721 -80.512001
L 629.475996 -80.512001
L 628.207271 -80.512001
L 626.938547 -80.512001
L 625.669822 -80.512001
L 624.401097 -80.512001
L 623.132372 -80.512001
L 621.863648 -80.512001
L 620.594923 -80.512001
L 619.326198 -80.512001
L 618.057473 -80.512001
L 616.788749 -80.512001
L 615.520024 -80.512001
L 614.251299 -80.512001
L 612.982574 -80.512001
L 611.713849 -80.512001
L 610.445125 -80.512001
L 609.1764 -80.512001
L 607.907675 -80.512001
L 606.63895 -80.512001
L 605.370226 -80.512001
L 604.101501 -80.512001
L 602.832776 -80.512001
L 601.564051 -80.512001
L 600.295327 -80.512001
L 599.026602 -80.512001
L 597.757877 -80.512001
L 596.489152 -80.512001
L 595.220428 -80.512001
L 593.951703 -80.512001
L 592.682978 -80.512001
L 591.414253 -80.512001
L 590.145529 -80.512001
L 588.876804 -80.512001
L 587.608079 -80.512001
L 586.339354 -80.512001
L 585.070629 -80.512001
L 583.801905 -80.512001
L 582.53318 -80.512001
L 581.264455 -80.512001
L 579.99573 -80.512001
L 578.727006 -80.512001
L 577.458281 -80.512001
L 576.189556 -80.512001
L 574.920831 -80.512001
L 573.652107 -80.512001
L 572.383382 -80.512001
L 571.114657 -80.512001
L 569.845932 -80.512001
L 568.577208 -80.512001
L 567.308483 -80.512001
L 566.039758 -80.512001
L 564.771033 -80.512001
L 563.502309 -80.512001
L 562.233584 -80.512001
L 560.964859 -80.512001
L 559.696134 -80.512001
L 558.427409 -80.512001
L 557.158685 -80.512001
L 555.88996 -80.512001
L 554.621235 -80.512001
L 553.35251 -80.512001
L 552.083786 -80.512001
L 550.815061 -80.512001
L 549.546336 -80.512001
L 548.277611 -80.512001
L 547.008887 -80.512001
L 545.740162 -80.512001
L 544.471437 -80.512001
L 543.202712 -80.512001
L 541.933988 -80.512001
L 540.665263 -80.512001
L 539.396538 -80.512001
L 538.127813 -80.512001
L 536.859089 -80.512001
L 535.590364 -80.512001
L 534.321639 -80.512001
L 533.052914 -80.512001
L 531.784189 -80.512001
L 530.515465 -80.512001
L 529.24674 -80.512001
L 527.978015 -80.512001
L 526.70929 -80.512001
L 525.440566 -80.512001
L 524.171841 -80.512001
L 522.903116 -80.512001
L 521.634391 -80.512001
L 520.365667 -80.512001
L 519.096942 -80.512001
L 517.828217 -80.512001
L 516.559492 -80.512001
L 515.290768 -80.512001
L 514.022043 -80.512001
L 512.753318 -80.512001
L 511.484593 -80.512001
L 510.215869 -80.512001
L 508.947144 -80.512001
L 507.678419 -80.512001
L 506.409694 -80.512001
L 505.14097 -80.512001
L 503.872245 -80.512001
L 502.60352 -80.512001
L 501.334795 -80.512001
L 500.06607 -80.512001
L 498.797346 -80.512001
L 497.528621 -80.512001
L 496.259896 -80.512001
L 494.991171 -80.512001
L 493.722447 -80.512001
L 492.453722 -80.512001
L 491.184997 -80.512001
L 489.916272 -80.512001
L 488.647548 -80.512001
L 487.378823 -80.512001
L 486.110098 -80.512001
L 484.841373 -80.512001
L 483.572649 -80.512001
L 482.303924 -80.512001
L 481.035199 -80.512001
L 479.766474 -80.512001
L 478.49775 -80.512001
L 477.229025 -80.512001
L 475.9603 -80.512001
L 474.691575 -80.512001
L 473.42285 -80.512001
L 472.154126 -80.512001
L 470.885401 -80.512001
L 469.616676 -80.512001
L 468.347951 -80.512001
L 467.079227 -80.512001
L 465.810502 -80.512001
L 464.541777 -80.512001
L 463.273052 -80.512001
L 462.004328 -80.512001
L 460.735603 -80.512001
L 459.466878 -80.512001
L 458.198153 -80.512001
L 456.929429 -80.512001
L 455.660704 -80.512001
L 454.391979 -80.512001
L 453.123254 -80.512001
L 451.85453 -80.512001
L 450.585805 -80.512001
L 449.31708 -80.512001
L 448.048355 -80.512001
L 446.77963 -80.512001
L 445.510906 -80.512001
L 444.242181 -80.512001
L 442.973456 -80.512001
L 441.704731 -80.512001
L 440.436007 -80.512001
L 439.167282 -80.512001
L 437.898557 -80.512001
L 436.629832 -80.512001
L 435.361108 -80.512001
L 434.092383 -80.512001
L 432.823658 -80.512001
L 431.554933 -80.512001
L 430.286209 -80.512001
L 429.017484 -80.512001
L 427.748759 -80.512001
L 426.480034 -80.512001
L 425.21131 -80.512001
L 423.942585 -80.512001
L 422.67386 -80.512001
L 421.405135 -80.512001
L 420.13641 -80.512001
L 418.867686 -80.512001
L 417.598961 -80.512001
L 416.330236 -80.512001
L 415.061511 -80.512001
L 413.792787 -80.512001
L 412.524062 -80.512001
L 411.255337 -80.512001
L 409.986612 -80.512001
L 408.717888 -80.512001
L 407.449163 -80.512001
L 406.180438 -80.512001
L 404.911713 -80.512001
L 403.642989 -80.512001
L 402.374264 -80.512001
L 401.105539 -80.512001
L 399.836814 -80.512001
L 398.56809 -80.512001
L 397.299365 -80.512001
L 396.03064 -80.512001
L 394.761915 -80.512001
L 393.493191 -80.512001
L 392.224466 -80.512001
L 390.955741 -80.512001
L 389.687016 -80.512001
L 388.418291 -80.512001
L 387.149567 -80.512001
L 385.880842 -80.512001
L 384.612117 -80.512001
L 383.343392 -80.512001
L 382.074668 -80.512001
L 380.805943 -80.512001
z
" style="stroke: #e53e3e; stroke-opacity: 0.15"/>
    </defs>
    <g clip-path="url(#p47425676f8)">
     <use xlink:href="#m24f93f0e02" x="0" y="351.708714" style="fill: #e53e3e; fill-opacity: 0.15; stroke: #e53e3e; stroke-opacity: 0.15"/>
    </g>
   </g>
   <g id="matplotlib.axis_3">
    <g id="xtick_7">
     <g id="line2d_14">
      <g>
       <use xlink:href="#mc36d92b763" x="380.805943" y="280.836332" style="fill: #2d3748; stroke: #2d3748; stroke-width: 0.8"/>
      </g>
     </g>
     <g id="text_19">
      <text style="fill: #2d3748; font: 7px 'DejaVu Sans', 'Bitstream Vera Sans', 'Computer Modern Sans Serif', 'Lucida Grande', 'Verdana', 'Geneva', 'Lucid', 'Arial', 'Helvetica', 'Avant Garde', sans-serif; text-anchor: middle" x="380.805943" y="293.155238" transform="rotate(-0 380.805943 293.155238)">0</text>
     </g>
    </g>
    <g id="xtick_8">
     <g id="line2d_15">
      <g>
       <use xlink:href="#mc36d92b763" x="431.301188" y="280.836332" style="fill: #2d3748; stroke: #2d3748; stroke-width: 0.8"/>
      </g>
     </g>
     <g id="text_20">
      <text style="fill: #2d3748; font: 7px 'DejaVu Sans', 'Bitstream Vera Sans', 'Computer Modern Sans Serif', 'Lucida Grande', 'Verdana', 'Geneva', 'Lucid', 'Arial', 'Helvetica', 'Avant Garde', sans-serif; text-anchor: middle" x="431.301188" y="293.155238" transform="rotate(-0 431.301188 293.155238)">1</text>
     </g>
    </g>
    <g id="xtick_9">
     <g id="line2d_16">
      <g>
       <use xlink:href="#mc36d92b763" x="481.796434" y="280.836332" style="fill: #2d3748; stroke: #2d3748; stroke-width: 0.8"/>
      </g>
     </g>
     <g id="text_21">
      <text style="fill: #2d3748; font: 7px 'DejaVu Sans', 'Bitstream Vera Sans', 'Computer Modern Sans Serif', 'Lucida Grande', 'Verdana', 'Geneva', 'Lucid', 'Arial', 'Helvetica', 'Avant Garde', sans-serif; text-anchor: middle" x="481.796434" y="293.155238" transform="rotate(-0 481.796434 293.155238)">2</text>
     </g>
    </g>
    <g id="xtick_10">
     <g id="line2d_17">
      <g>
       <use xlink:href="#mc36d92b763" x="532.291679" y="280.836332" style="fill: #2d3748; stroke: #2d3748; stroke-width: 0.8"/>
      </g>
     </g>
     <g id="text_22">
      <text style="fill: #2d3748; font: 7px 'DejaVu Sans', 'Bitstream Vera Sans', 'Computer Modern Sans Serif', 'Lucida Grande', 'Verdana', 'Geneva', 'Lucid', 'Arial', 'Helvetica', 'Avant Garde', sans-serif; text-anchor: middle" x="532.291679" y="293.155238" transform="rotate(-0 532.291679 293.155238)">3</text>
     </g>
    </g>
    <g id="xtick_11">
     <g id="line2d_18">
      <g>
       <use xlink:href="#mc36d92b763" x="582.786925" y="280.836332" style="fill: #2d3748; stroke: #2d3748; stroke-width: 0.8"/>
      </g>
     </g>
     <g id="text_23">
      <text style="fill: #2d3748; font: 7px 'DejaVu Sans', 'Bitstream Vera Sans', 'Computer Modern Sans Serif', 'Lucida Grande', 'Verdana', 'Geneva', 'Lucid', 'Arial', 'Helvetica', 'Avant Garde', sans-serif; text-anchor: middle" x="582.786925" y="293.155238" transform="rotate(-0 582.786925 293.155238)">4</text>
     </g>
    </g>
    <g id="xtick_12">
     <g id="line2d_19">
      <g>
       <use xlink:href="#mc36d92b763" x="633.28217" y="280.836332" style="fill: #2d3748; stroke: #2d3748; stroke-width: 0.8"/>
      </g>
     </g>
     <g id="text_24">
      <text style="fill: #2d3748; font: 7px 'DejaVu Sans', 'Bitstream Vera Sans', 'Computer Modern Sans Serif', 'Lucida Grande', 'Verdana', 'Geneva', 'Lucid', 'Arial', 'Helvetica', 'Avant Garde', sans-serif; text-anchor: middle" x="633.28217" y="293.155238" transform="rotate(-0 633.28217 293.155238)">5</text>
     </g>
    </g>
    <g id="text_25">
     <text style="fill: #2d3748; font: 9px 'DejaVu Sans', 'Bitstream Vera Sans', 'Computer Modern Sans Serif', 'Lucida Grande', 'Verdana', 'Geneva', 'Lucid', 'Arial', 'Helvetica', 'Avant Garde', sans-serif; text-anchor: middle" x="507.044057" y="305.449613" transform="rotate(-0 507.044057 305.449613)">x</text>
    </g>
   </g>
   <g id="matplotlib.axis_4">
    <g id="ytick_6">
     <g id="line2d_20">
      <g>
       <use xlink:href="#m6c2e7563dd" x="368.182132" y="271.196713" style="fill: #2d3748; stroke: #2d3748; stroke-width: 0.8"/>
      </g>
     </g>
     <g id="text_26">
      <text style="fill: #2d3748; font: 7px 'DejaVu Sans', 'Bitstream Vera Sans', 'Computer Modern Sans Serif', 'Lucida Grande', 'Verdana', 'Geneva', 'Lucid', 'Arial', 'Helvetica', 'Avant Garde', sans-serif; text-anchor: end" x="361.182132" y="273.856166" transform="rotate(-0 361.182132 273.856166)">0.0</text>
     </g>
    </g>
    <g id="ytick_7">
     <g id="line2d_21">
      <g>
       <use xlink:href="#m6c2e7563dd" x="368.182132" y="239.058639" style="fill: #2d3748; stroke: #2d3748; stroke-width: 0.8"/>
      </g>
     </g>
     <g id="text_27">
      <text style="fill: #2d3748; font: 7px 'DejaVu Sans', 'Bitstream Vera Sans', 'Computer Modern Sans Serif', 'Lucida Grande', 'Verdana', 'Geneva', 'Lucid', 'Arial', 'Helvetica', 'Avant Garde', sans-serif; text-anchor: end" x="361.182132" y="241.718092" transform="rotate(-0 361.182132 241.718092)">0.2</text>
     </g>
    </g>
    <g id="ytick_8">
     <g id="line2d_22">
      <g>
       <use xlink:href="#m6c2e7563dd" x="368.182132" y="206.920564" style="fill: #2d3748; stroke: #2d3748; stroke-width: 0.8"/>
      </g>
     </g>
     <g id="text_28">
      <text style="fill: #2d3748; font: 7px 'DejaVu Sans', 'Bitstream Vera Sans', 'Computer Modern Sans Serif', 'Lucida Grande', 'Verdana', 'Geneva', 'Lucid', 'Arial', 'Helvetica', 'Avant Garde', sans-serif; text-anchor: end" x="361.182132" y="209.580017" transform="rotate(-0 361.182132 209.580017)">0.4</text>
     </g>
    </g>
    <g id="ytick_9">
     <g id="line2d_23">
      <g>
       <use xlink:href="#m6c2e7563dd" x="368.182132" y="174.782489" style="fill: #2d3748; stroke: #2d3748; stroke-width: 0.8"/>
      </g>
     </g>
     <g id="text_29">
      <text style="fill: #2d3748; font: 7px 'DejaVu Sans', 'Bitstream Vera Sans', 'Computer Modern Sans Serif', 'Lucida Grande', 'Verdana', 'Geneva', 'Lucid', 'Arial', 'Helvetica', 'Avant Garde', sans-serif; text-anchor: end" x="361.182132" y="177.441943" transform="rotate(-0 361.182132 177.441943)">0.6</text>
     </g>
    </g>
    <g id="ytick_10">
     <g id="line2d_24">
      <g>
       <use xlink:href="#m6c2e7563dd" x="368.182132" y="142.644415" style="fill: #2d3748; stroke: #2d3748; stroke-width: 0.8"/>
      </g>
     </g>
     <g id="text_30">
      <text style="fill: #2d3748; font: 7px 'DejaVu Sans', 'Bitstream Vera Sans', 'Computer Modern Sans Serif', 'Lucida Grande', 'Verdana', 'Geneva', 'Lucid', 'Arial', 'Helvetica', 'Avant Garde', sans-serif; text-anchor: end" x="361.182132" y="145.303868" transform="rotate(-0 361.182132 145.303868)">0.8</text>
     </g>
    </g>
    <g id="ytick_11">
     <g id="line2d_25">
      <g>
       <use xlink:href="#m6c2e7563dd" x="368.182132" y="110.50634" style="fill: #2d3748; stroke: #2d3748; stroke-width: 0.8"/>
      </g>
     </g>
     <g id="text_31">
      <text style="fill: #2d3748; font: 7px 'DejaVu Sans', 'Bitstream Vera Sans', 'Computer Modern Sans Serif', 'Lucida Grande', 'Verdana', 'Geneva', 'Lucid', 'Arial', 'Helvetica', 'Avant Garde', sans-serif; text-anchor: end" x="361.182132" y="113.165793" transform="rotate(-0 361.182132 113.165793)">1.0</text>
     </g>
    </g>
    <g id="ytick_12">
     <g id="line2d_26">
      <g>
       <use xlink:href="#m6c2e7563dd" x="368.182132" y="78.368266" style="fill: #2d3748; stroke: #2d3748; stroke-width: 0.8"/>
      </g>
     </g>
     <g id="text_32">
      <text style="fill: #2d3748; font: 7px 'DejaVu Sans', 'Bitstream Vera Sans', 'Computer Modern Sans Serif', 'Lucida Grande', 'Verdana', 'Geneva', 'Lucid', 'Arial', 'Helvetica', 'Avant Garde', sans-serif; text-anchor: end" x="361.182132" y="81.027719" transform="rotate(-0 361.182132 81.027719)">1.2</text>
     </g>
    </g>
    <g id="text_33">
     <text style="fill: #2d3748; font: 9px 'DejaVu Sans', 'Bitstream Vera Sans', 'Computer Modern Sans Serif', 'Lucida Grande', 'Verdana', 'Geneva', 'Lucid', 'Arial', 'Helvetica', 'Avant Garde', sans-serif; text-anchor: middle" x="344.178225" y="174.800523" transform="rotate(-90 344.178225 174.800523)">density</text>
    </g>
   </g>
   <g id="line2d_27">
    <path d="M 380.805943 271.132026
L 389.687016 270.948392
L 396.03064 270.594987
L 399.836814 270.203895
L 403.642989 269.595421
L 406.180438 269.022072
L 408.717888 268.273113
L 411.255337 267.305709
L 413.792787 266.070241
L 416.330236 264.510366
L 418.867686 262.5635
L 421.405135 260.16179
L 423.942585 257.233689
L 426.480034 253.706185
L 429.017484 249.507705
L 431.554933 244.571705
L 434.092383 238.840842
L 436.629832 232.271612
L 439.167282 224.839246
L 441.704731 216.542589
L 444.242181 207.40864
L 446.77963 197.496401
L 450.585805 181.383751
L 455.660704 158.352706
L 462.004328 129.379912
L 464.541777 118.527784
L 467.079227 108.496931
L 469.616676 99.54954
L 472.154126 91.929955
L 473.42285 88.686832
L 474.691575 85.853624
L 475.9603 83.451084
L 477.229025 81.496978
L 478.49775 80.005861
L 479.766474 78.988898
L 481.035199 78.453721
L 482.303924 78.404333
L 483.572649 78.841055
L 484.841373 79.760514
L 486.110098 81.15569
L 487.378823 83.015992
L 488.647548 85.327391
L 489.916272 88.072581
L 491.184997 91.231193
L 492.453722 94.780028
L 494.991171 102.943081
L 497.528621 112.330434
L 500.06607 122.68493
L 503.872245 139.433035
L 512.753318 179.478418
L 515.290768 190.079236
L 517.828217 199.942053
L 520.365667 208.91633
L 522.903116 216.882131
L 525.440566 223.749122
L 526.70929 226.750051
L 527.978015 229.455026
L 529.24674 231.860377
L 530.515465 233.964002
L 531.784189 235.765336
L 533.052914 237.265329
L 534.321639 238.466445
L 535.590364 239.372659
L 536.859089 239.989477
L 538.127813 240.323948
L 539.396538 240.384698
L 540.665263 240.181952
L 541.933988 239.72756
L 543.202712 239.035016
L 544.471437 238.11947
L 545.740162 236.997712
L 547.008887 235.688155
L 549.546336 232.587047
L 552.083786 228.99317
L 557.158685 221.126935
L 560.964859 215.471377
L 563.502309 212.209521
L 564.771033 210.802494
L 566.039758 209.572506
L 567.308483 208.537655
L 568.577208 207.713522
L 569.845932 207.112942
L 571.114657 206.745822
L 572.383382 206.619004
L 573.652107 206.736182
L 574.920831 207.097881
L 576.189556 207.701489
L 577.458281 208.541344
L 578.727006 209.608886
L 579.99573 210.892848
L 581.264455 212.379505
L 583.801905 215.895433
L 586.339354 220.009225
L 588.876804 224.555016
L 595.220428 236.689677
L 599.026602 243.726547
L 601.564051 248.061638
L 604.101501 252.017501
L 606.63895 255.545803
L 609.1764 258.62494
L 611.713849 261.256381
L 614.251299 263.460075
L 616.788749 265.269502
L 619.326198 266.726843
L 621.863648 267.878642
L 624.401097 268.772211
L 626.938547 269.452878
L 630.744721 270.164002
L 633.28217 270.482667
L 633.28217 270.482667
" clip-path="url(#p47425676f8)" style="fill: none; stroke: #38a169; stroke-width: 2; stroke-linecap: square"/>
   </g>
   <g id="line2d_28">
    <path d="M 380.805943 233.340941
L 385.880842 227.054877
L 392.224466 218.81625
L 403.642989 203.884019
L 408.717888 197.648178
L 412.524062 193.290823
L 416.330236 189.282409
L 420.13641 185.679817
L 422.67386 183.525952
L 425.21131 181.581892
L 427.748759 179.853992
L 430.286209 178.345318
L 432.823658 177.055584
L 435.361108 175.981155
L 437.898557 175.115132
L 440.436007 174.447509
L 442.973456 173.9654
L 445.510906 173.653336
L 449.31708 173.464856
L 453.123254 173.551784
L 458.198153 173.970035
L 475.9603 175.840271
L 479.766474 175.948046
L 483.572649 175.87826
L 487.378823 175.625112
L 492.453722 175.01994
L 497.528621 174.165311
L 506.409694 172.370841
L 512.753318 171.174797
L 517.828217 170.472216
L 521.634391 170.174556
L 525.440566 170.119961
L 529.24674 170.337312
L 533.052914 170.840406
L 536.859089 171.625619
L 540.665263 172.670369
L 544.471437 173.932729
L 549.546336 175.84812
L 559.696134 179.759389
L 563.502309 180.992171
L 567.308483 181.985999
L 571.114657 182.703194
L 574.920831 183.142971
L 578.727006 183.348019
L 590.145529 183.641657
L 592.682978 183.941922
L 595.220428 184.444193
L 597.757877 185.200571
L 600.295327 186.257656
L 602.832776 187.653984
L 605.370226 189.417798
L 607.907675 191.565319
L 610.445125 194.099627
L 612.982574 197.010238
L 615.520024 200.273387
L 618.057473 203.85303
L 621.863648 209.711346
L 626.938547 218.12967
L 633.28217 228.909076
L 633.28217 228.909076
" clip-path="url(#p47425676f8)" style="fill: none; stroke: #e53e3e; stroke-width: 2; stroke-linecap: square"/>
   </g>
   <g id="patch_11">
    <path d="M 368.182132 280.836332
L 368.182132 68.764714
" style="fill: none; stroke: #e2e8f0; stroke-width: 1.5; stroke-linejoin: miter; stroke-linecap: square"/>
   </g>
   <g id="patch_12">
    <path d="M 645.905982 280.836332
L 645.905982 68.764714
" style="fill: none; stroke: #e2e8f0; stroke-width: 1.5; stroke-linejoin: miter; stroke-linecap: square"/>
   </g>
   <g id="patch_13">
    <path d="M 368.182132 280.836332
L 645.905982 280.836332
" style="fill: none; stroke: #e2e8f0; stroke-width: 1.5; stroke-linejoin: miter; stroke-linecap: square"/>
   </g>
   <g id="patch_14">
    <path d="M 368.182132 68.764714
L 645.905982 68.764714
" style="fill: none; stroke: #e2e8f0; stroke-width: 1.5; stroke-linejoin: miter; stroke-linecap: square"/>
   </g>
   <g id="text_34">
    <!-- maximize $\ell(x) / g(x)$ -->
    <g style="fill: #dd6b20" transform="translate(444.596434 59.121489)">
     <text>
      <tspan style="font: oblique 8px 'DejaVu Sans'" x="0 7.792969 12.695312 17.429688 19.652344 27.445312 29.667969 33.867188 38.789062 41.332031 47.757812 58.308594 66.507812" y="-0.921875">maximize ℓxgx</tspan>
      <tspan style="font: 8px 'DejaVu Sans'" x="44.636719 52.492188 55.613281 63.386719 71.242188" y="-0.921875">()/()</tspan>
     </text>
    </g>
   </g>
   <g id="text_35">
    <text style="fill: #dd6b20; font: 700 11px 'DejaVu Sans', 'Bitstream Vera Sans', 'Computer Modern Sans Serif', 'Lucida Grande', 'Verdana', 'Geneva', 'Lucid', 'Arial', 'Helvetica', 'Avant Garde', sans-serif; text-anchor: middle" x="507.044057" y="58.764714" transform="rotate(-0 507.044057 58.764714)">Tree-Structured Parzen Estimators</text>
   </g>
   <g id="legend_2">
    <g id="patch_15">
     <path d="M 577.905982 98.684714
L 640.305982 98.684714
Q 641.905982 98.684714 641.905982 97.084714
L 641.905982 74.364714
Q 641.905982 72.764714 640.305982 72.764714
L 577.905982 72.764714
Q 576.305982 72.764714 576.305982 74.364714
L 576.305982 97.084714
Q 576.305982 98.684714 577.905982 98.684714
z
" style="fill: #ffffff; opacity: 0.8; stroke: #cccccc; stroke-linejoin: miter"/>
    </g>
    <g id="line2d_29">
     <path d="M 579.505982 79.244714
L 587.505982 79.244714
L 595.505982 79.244714
" style="fill: none; stroke: #38a169; stroke-width: 2; stroke-linecap: square"/>
    </g>
    <g id="text_36">
     <!-- $\ell(x)$ good -->
     <g transform="translate(601.905982 82.044714)">
      <text>
       <tspan style="font: oblique 8px 'DejaVu Sans'" x="0 6.425781" y="-0.921875">ℓx</tspan>
       <tspan style="font: 8px 'DejaVu Sans'" x="3.304688 11.160156 14.28125 16.824219 21.902344 26.796875 31.691406" y="-0.921875">() good</tspan>
      </text>
     </g>
    </g>
    <g id="line2d_30">
     <path d="M 579.505982 91.004714
L 587.505982 91.004714
L 595.505982 91.004714
" style="fill: none; stroke: #e53e3e; stroke-width: 2; stroke-linecap: square"/>
    </g>
    <g id="text_37">
     <!-- $g(x)$ bad -->
     <g transform="translate(601.905982 93.804714)">
      <text>
       <tspan style="font: oblique 8px 'DejaVu Sans'" x="0 8.199219" y="-0.921875">gx</tspan>
       <tspan style="font: 8px 'DejaVu Sans'" x="5.078125 12.933594 16.054688 18.597656 23.675781 28.578125" y="-0.921875">() bad</tspan>
      </text>
     </g>
    </g>
   </g>
  </g>
  <g id="axes_3">
   <g id="patch_16">
    <path d="M 692.455982 280.836332
L 970.179832 280.836332
L 970.179832 68.764714
L 692.455982 68.764714
L 692.455982 280.836332
z
" style="fill: none"/>
   </g>
   <g id="matplotlib.axis_5">
    <g id="xtick_13">
     <g id="line2d_31">
      <g>
       <use xlink:href="#mc36d92b763" x="705.079793" y="280.836332" style="fill: #2d3748; stroke: #2d3748; stroke-width: 0.8"/>
      </g>
     </g>
     <g id="text_38">
      <text style="fill: #2d3748; font: 7px 'DejaVu Sans', 'Bitstream Vera Sans', 'Computer Modern Sans Serif', 'Lucida Grande', 'Verdana', 'Geneva', 'Lucid', 'Arial', 'Helvetica', 'Avant Garde', sans-serif; text-anchor: middle" x="705.079793" y="293.155238" transform="rotate(-0 705.079793 293.155238)">0</text>
     </g>
    </g>
    <g id="xtick_14">
     <g id="line2d_32">
      <g>
       <use xlink:href="#mc36d92b763" x="755.575039" y="280.836332" style="fill: #2d3748; stroke: #2d3748; stroke-width: 0.8"/>
      </g>
     </g>
     <g id="text_39">
      <text style="fill: #2d3748; font: 7px 'DejaVu Sans', 'Bitstream Vera Sans', 'Computer Modern Sans Serif', 'Lucida Grande', 'Verdana', 'Geneva', 'Lucid', 'Arial', 'Helvetica', 'Avant Garde', sans-serif; text-anchor: middle" x="755.575039" y="293.155238" transform="rotate(-0 755.575039 293.155238)">1</text>
     </g>
    </g>
    <g id="xtick_15">
     <g id="line2d_33">
      <g>
       <use xlink:href="#mc36d92b763" x="806.070284" y="280.836332" style="fill: #2d3748; stroke: #2d3748; stroke-width: 0.8"/>
      </g>
     </g>
     <g id="text_40">
      <text style="fill: #2d3748; font: 7px 'DejaVu Sans', 'Bitstream Vera Sans', 'Computer Modern Sans Serif', 'Lucida Grande', 'Verdana', 'Geneva', 'Lucid', 'Arial', 'Helvetica', 'Avant Garde', sans-serif; text-anchor: middle" x="806.070284" y="293.155238" transform="rotate(-0 806.070284 293.155238)">2</text>
     </g>
    </g>
    <g id="xtick_16">
     <g id="line2d_34">
      <g>
       <use xlink:href="#mc36d92b763" x="856.56553" y="280.836332" style="fill: #2d3748; stroke: #2d3748; stroke-width: 0.8"/>
      </g>
     </g>
     <g id="text_41">
      <text style="fill: #2d3748; font: 7px 'DejaVu Sans', 'Bitstream Vera Sans', 'Computer Modern Sans Serif', 'Lucida Grande', 'Verdana', 'Geneva', 'Lucid', 'Arial', 'Helvetica', 'Avant Garde', sans-serif; text-anchor: middle" x="856.56553" y="293.155238" transform="rotate(-0 856.56553 293.155238)">3</text>
     </g>
    </g>
    <g id="xtick_17">
     <g id="line2d_35">
      <g>
       <use xlink:href="#mc36d92b763" x="907.060775" y="280.836332" style="fill: #2d3748; stroke: #2d3748; stroke-width: 0.8"/>
      </g>
     </g>
     <g id="text_42">
      <text style="fill: #2d3748; font: 7px 'DejaVu Sans', 'Bitstream Vera Sans', 'Computer Modern Sans Serif', 'Lucida Grande', 'Verdana', 'Geneva', 'Lucid', 'Arial', 'Helvetica', 'Avant Garde', sans-serif; text-anchor: middle" x="907.060775" y="293.155238" transform="rotate(-0 907.060775 293.155238)">4</text>
     </g>
    </g>
    <g id="xtick_18">
     <g id="line2d_36">
      <g>
       <use xlink:href="#mc36d92b763" x="957.556021" y="280.836332" style="fill: #2d3748; stroke: #2d3748; stroke-width: 0.8"/>
      </g>
     </g>
     <g id="text_43">
      <text style="fill: #2d3748; font: 7px 'DejaVu Sans', 'Bitstream Vera Sans', 'Computer Modern Sans Serif', 'Lucida Grande', 'Verdana', 'Geneva', 'Lucid', 'Arial', 'Helvetica', 'Avant Garde', sans-serif; text-anchor: middle" x="957.556021" y="293.155238" transform="rotate(-0 957.556021 293.155238)">5</text>
     </g>
    </g>
    <g id="text_44">
     <text style="fill: #2d3748; font: 9px 'DejaVu Sans', 'Bitstream Vera Sans', 'Computer Modern Sans Serif', 'Lucida Grande', 'Verdana', 'Geneva', 'Lucid', 'Arial', 'Helvetica', 'Avant Garde', sans-serif; text-anchor: middle" x="831.317907" y="305.449613" transform="rotate(-0 831.317907 305.449613)">x</text>
    </g>
   </g>
   <g id="matplotlib.axis_6">
    <g id="ytick_13">
     <g id="line2d_37">
      <g>
       <use xlink:href="#m6c2e7563dd" x="692.455982" y="271.196713" style="fill: #2d3748; stroke: #2d3748; stroke-width: 0.8"/>
      </g>
     </g>
     <g id="text_45">
      <text style="fill: #2d3748; font: 7px 'DejaVu Sans', 'Bitstream Vera Sans', 'Computer Modern Sans Serif', 'Lucida Grande', 'Verdana', 'Geneva', 'Lucid', 'Arial', 'Helvetica', 'Avant Garde', sans-serif; text-anchor: end" x="685.455982" y="273.856166" transform="rotate(-0 685.455982 273.856166)">0.00</text>
     </g>
    </g>
    <g id="ytick_14">
     <g id="line2d_38">
      <g>
       <use xlink:href="#m6c2e7563dd" x="692.455982" y="245.533777" style="fill: #2d3748; stroke: #2d3748; stroke-width: 0.8"/>
      </g>
     </g>
     <g id="text_46">
      <text style="fill: #2d3748; font: 7px 'DejaVu Sans', 'Bitstream Vera Sans', 'Computer Modern Sans Serif', 'Lucida Grande', 'Verdana', 'Geneva', 'Lucid', 'Arial', 'Helvetica', 'Avant Garde', sans-serif; text-anchor: end" x="685.455982" y="248.19323" transform="rotate(-0 685.455982 248.19323)">0.25</text>
     </g>
    </g>
    <g id="ytick_15">
     <g id="line2d_39">
      <g>
       <use xlink:href="#m6c2e7563dd" x="692.455982" y="219.870842" style="fill: #2d3748; stroke: #2d3748; stroke-width: 0.8"/>
      </g>
     </g>
     <g id="text_47">
      <text style="fill: #2d3748; font: 7px 'DejaVu Sans', 'Bitstream Vera Sans', 'Computer Modern Sans Serif', 'Lucida Grande', 'Verdana', 'Geneva', 'Lucid', 'Arial', 'Helvetica', 'Avant Garde', sans-serif; text-anchor: end" x="685.455982" y="222.530295" transform="rotate(-0 685.455982 222.530295)">0.50</text>
     </g>
    </g>
    <g id="ytick_16">
     <g id="line2d_40">
      <g>
       <use xlink:href="#m6c2e7563dd" x="692.455982" y="194.207906" style="fill: #2d3748; stroke: #2d3748; stroke-width: 0.8"/>
      </g>
     </g>
     <g id="text_48">
      <text style="fill: #2d3748; font: 7px 'DejaVu Sans', 'Bitstream Vera Sans', 'Computer Modern Sans Serif', 'Lucida Grande', 'Verdana', 'Geneva', 'Lucid', 'Arial', 'Helvetica', 'Avant Garde', sans-serif; text-anchor: end" x="685.455982" y="196.867359" transform="rotate(-0 685.455982 196.867359)">0.75</text>
     </g>
    </g>
    <g id="ytick_17">
     <g id="line2d_41">
      <g>
       <use xlink:href="#m6c2e7563dd" x="692.455982" y="168.54497" style="fill: #2d3748; stroke: #2d3748; stroke-width: 0.8"/>
      </g>
     </g>
     <g id="text_49">
      <text style="fill: #2d3748; font: 7px 'DejaVu Sans', 'Bitstream Vera Sans', 'Computer Modern Sans Serif', 'Lucida Grande', 'Verdana', 'Geneva', 'Lucid', 'Arial', 'Helvetica', 'Avant Garde', sans-serif; text-anchor: end" x="685.455982" y="171.204423" transform="rotate(-0 685.455982 171.204423)">1.00</text>
     </g>
    </g>
    <g id="ytick_18">
     <g id="line2d_42">
      <g>
       <use xlink:href="#m6c2e7563dd" x="692.455982" y="142.882034" style="fill: #2d3748; stroke: #2d3748; stroke-width: 0.8"/>
      </g>
     </g>
     <g id="text_50">
      <text style="fill: #2d3748; font: 7px 'DejaVu Sans', 'Bitstream Vera Sans', 'Computer Modern Sans Serif', 'Lucida Grande', 'Verdana', 'Geneva', 'Lucid', 'Arial', 'Helvetica', 'Avant Garde', sans-serif; text-anchor: end" x="685.455982" y="145.541488" transform="rotate(-0 685.455982 145.541488)">1.25</text>
     </g>
    </g>
    <g id="ytick_19">
     <g id="line2d_43">
      <g>
       <use xlink:href="#m6c2e7563dd" x="692.455982" y="117.219099" style="fill: #2d3748; stroke: #2d3748; stroke-width: 0.8"/>
      </g>
     </g>
     <g id="text_51">
      <text style="fill: #2d3748; font: 7px 'DejaVu Sans', 'Bitstream Vera Sans', 'Computer Modern Sans Serif', 'Lucida Grande', 'Verdana', 'Geneva', 'Lucid', 'Arial', 'Helvetica', 'Avant Garde', sans-serif; text-anchor: end" x="685.455982" y="119.878552" transform="rotate(-0 685.455982 119.878552)">1.50</text>
     </g>
    </g>
    <g id="ytick_20">
     <g id="line2d_44">
      <g>
       <use xlink:href="#m6c2e7563dd" x="692.455982" y="91.556163" style="fill: #2d3748; stroke: #2d3748; stroke-width: 0.8"/>
      </g>
     </g>
     <g id="text_52">
      <text style="fill: #2d3748; font: 7px 'DejaVu Sans', 'Bitstream Vera Sans', 'Computer Modern Sans Serif', 'Lucida Grande', 'Verdana', 'Geneva', 'Lucid', 'Arial', 'Helvetica', 'Avant Garde', sans-serif; text-anchor: end" x="685.455982" y="94.215616" transform="rotate(-0 685.455982 94.215616)">1.75</text>
     </g>
    </g>
    <g id="text_53">
     <text style="fill: #2d3748; font: 9px 'DejaVu Sans', 'Bitstream Vera Sans', 'Computer Modern Sans Serif', 'Lucida Grande', 'Verdana', 'Geneva', 'Lucid', 'Arial', 'Helvetica', 'Avant Garde', sans-serif; text-anchor: middle" x="663.998326" y="174.800523" transform="rotate(-90 663.998326 174.800523)">f(x)</text>
    </g>
   </g>
   <g id="line2d_45">
    <path d="M 705.079793 99.562625
L 724.501041 99.562625
L 724.501041 237.619521
L 739.700279 237.619521
L 739.700279 221.682052
L 814.007664 221.682052
L 814.007664 149.469601
L 837.650923 149.469601
L 837.650923 149.986235
L 957.556021 149.986235
L 957.556021 271.196713
L 957.556021 271.196713
" clip-path="url(#p5d14433dbb)" style="fill: none; stroke: #dd6b20; stroke-opacity: 0.25; stroke-linecap: square"/>
   </g>
   <g id="line2d_46">
    <path d="M 705.079793 168.404102
L 726.189846 168.404102
L 726.189846 78.691461
L 768.409951 78.691461
L 768.409951 263.420105
L 820.762881 263.420105
L 820.762881 181.763969
L 927.157545 181.763969
L 927.157545 89.213554
L 957.556021 89.213554
L 957.556021 271.196713
L 957.556021 271.196713
" clip-path="url(#p5d14433dbb)" style="fill: none; stroke: #dd6b20; stroke-opacity: 0.25; stroke-linecap: square"/>
   </g>
   <g id="line2d_47">
    <path d="M 705.079793 198.663786
L 743.077888 198.663786
L 743.077888 165.028258
L 763.343538 165.028258
L 763.343538 78.404333
L 799.652828 78.404333
L 799.652828 233.02146
L 806.408045 233.02146
L 806.408045 251.560793
L 820.762881 251.560793
L 820.762881 207.936064
L 957.556021 207.936064
L 957.556021 271.196713
L 957.556021 271.196713
" clip-path="url(#p5d14433dbb)" style="fill: none; stroke: #dd6b20; stroke-opacity: 0.25; stroke-linecap: square"/>
   </g>
   <g id="line2d_48">
    <path d="M 705.079793 153.814583
L 781.920384 153.814583
L 781.920384 227.479624
L 798.808426 227.479624
L 798.808426 204.705849
L 821.607283 204.705849
L 821.607283 137.922897
L 847.783748 137.922897
L 847.783748 216.536757
L 957.556021 216.536757
L 957.556021 271.196713
L 957.556021 271.196713
" clip-path="url(#p5d14433dbb)" style="fill: none; stroke: #dd6b20; stroke-opacity: 0.25; stroke-linecap: square"/>
   </g>
   <g id="line2d_49">
    <path d="M 705.079793 153.924201
L 786.986797 153.924201
L 786.986797 256.020738
L 797.119622 256.020738
L 797.119622 218.536611
L 832.58451 218.536611
L 832.58451 151.283883
L 858.760975 151.283883
L 858.760975 209.733645
L 896.75907 209.733645
L 896.75907 121.906302
L 957.556021 121.906302
L 957.556021 271.196713
L 957.556021 271.196713
" clip-path="url(#p5d14433dbb)" style="fill: none; stroke: #dd6b20; stroke-opacity: 0.25; stroke-linecap: square"/>
   </g>
   <g id="line2d_50">
    <path d="M 705.079793 154.873859
L 724.501041 154.873859
L 724.501041 182.485239
L 726.189846 182.485239
L 726.189846 164.542711
L 739.700279 164.542711
L 739.700279 161.355217
L 743.077888 161.355217
L 743.077888 154.628111
L 763.343538 154.628111
L 763.343538 137.303326
L 768.409951 137.303326
L 768.409951 174.249055
L 781.920384 174.249055
L 781.920384 188.982063
L 786.986797 188.982063
L 786.986797 209.401371
L 797.119622 209.401371
L 797.119622 201.904545
L 798.808426 201.904545
L 798.808426 197.34979
L 799.652828 197.34979
L 799.652828 228.273215
L 806.408045 228.273215
L 806.408045 231.981082
L 814.007664 231.981082
L 814.007664 217.538592
L 820.762881 217.538592
L 820.762881 192.482419
L 821.607283 192.482419
L 821.607283 179.125828
L 832.58451 179.125828
L 832.58451 165.675283
L 847.783748 165.77861
L 847.783748 181.501381
L 858.760975 181.501381
L 858.760975 193.191334
L 896.75907 193.191334
L 896.75907 175.625865
L 927.157545 175.625865
L 927.157545 157.115782
L 957.556021 157.115782
L 957.556021 271.196713
L 957.556021 271.196713
" clip-path="url(#p5d14433dbb)" style="fill: none; stroke: #dd6b20; stroke-width: 2.5; stroke-linecap: square"/>
   </g>
   <g id="patch_17">
    <path d="M 692.455982 280.836332
L 692.455982 68.764714
" style="fill: none; stroke: #e2e8f0; stroke-width: 1.5; stroke-linejoin: miter; stroke-linecap: square"/>
   </g>
   <g id="patch_18">
    <path d="M 970.179832 280.836332
L 970.179832 68.764714
" style="fill: none; stroke: #e2e8f0; stroke-width: 1.5; stroke-linejoin: miter; stroke-linecap: square"/>
   </g>
   <g id="patch_19">
    <path d="M 692.455982 280.836332
L 970.179832 280.836332
" style="fill: none; stroke: #e2e8f0; stroke-width: 1.5; stroke-linejoin: miter; stroke-linecap: square"/>
   </g>
   <g id="patch_20">
    <path d="M 692.455982 68.764714
L 970.179832 68.764714
" style="fill: none; stroke: #e2e8f0; stroke-width: 1.5; stroke-linejoin: miter; stroke-linecap: square"/>
   </g>
   <g id="text_54">
    <text style="fill: #dd6b20; opacity: 0.6; font: italic 7px 'DejaVu Sans', 'Bitstream Vera Sans', 'Computer Modern Sans Serif', 'Lucida Grande', 'Verdana', 'Geneva', 'Lucid', 'Arial', 'Helvetica', 'Avant Garde', sans-serif; text-anchor: start" x="932.308398" y="343.052933" transform="rotate(-0 932.308398 343.052933)">individual trees</text>
   </g>
   <g id="text_55">
    <text style="fill: #dd6b20; font: 700 11px 'DejaVu Sans', 'Bitstream Vera Sans', 'Computer Modern Sans Serif', 'Lucida Grande', 'Verdana', 'Geneva', 'Lucid', 'Arial', 'Helvetica', 'Avant Garde', sans-serif; text-anchor: middle" x="831.317907" y="58.764714" transform="rotate(-0 831.317907 58.764714)">Forest (Random Forest Surrogate)</text>
   </g>
   <g id="legend_3">
    <g id="patch_21">
     <path d="M 698.055982 86.907214
L 787.984732 86.907214
Q 789.584732 86.907214 789.584732 85.307214
L 789.584732 74.364714
Q 789.584732 72.764714 787.984732 72.764714
L 698.055982 72.764714
Q 696.455982 72.764714 696.455982 74.364714
L 696.455982 85.307214
Q 696.455982 86.907214 698.055982 86.907214
z
" style="fill: #ffffff; opacity: 0.8; stroke: #cccccc; stroke-linejoin: miter"/>
    </g>
    <g id="line2d_51">
     <path d="M 699.655982 79.243464
L 707.655982 79.243464
L 707.655982 79.243464
L 715.655982 79.243464
L 715.655982 79.243464
" style="fill: none; stroke: #dd6b20; stroke-width: 2.5; stroke-linecap: square"/>
    </g>
    <g id="text_56">
     <text style="font: 8px 'DejaVu Sans', 'Bitstream Vera Sans', 'Computer Modern Sans Serif', 'Lucida Grande', 'Verdana', 'Geneva', 'Lucid', 'Arial', 'Helvetica', 'Avant Garde', sans-serif; text-anchor: start" x="722.055982" y="82.043464" transform="rotate(-0 722.055982 82.043464)">ensemble mean</text>
    </g>
   </g>
  </g>
  <g id="text_57">
   <text style="fill: #dd6b20; font: 700 13px 'DejaVu Sans', 'Bitstream Vera Sans', 'Computer Modern Sans Serif', 'Lucida Grande', 'Verdana', 'Geneva', 'Lucid', 'Arial', 'Helvetica', 'Avant Garde', sans-serif; text-anchor: middle" x="499.918281" y="17.077969" transform="rotate(-0 499.918281 17.077969)">Sequential Model-Based Optimization -- Surrogate Models</text>
  </g>
 </g>
 <defs>
  <clipPath id="pb4e97cf935">
   <rect x="43.908281" y="68.764714" width="277.72385" height="212.071618"/>
  </clipPath>
  <clipPath id="p47425676f8">
   <rect x="368.182132" y="68.764714" width="277.72385" height="212.071618"/>
  </clipPath>
  <clipPath id="p5d14433dbb">
   <rect x="692.455982" y="68.764714" width="277.72385" height="212.071618"/>
  </clipPath>
 </defs>
</svg>
