<?xml version="1.0" encoding="UTF-8" standalone="no"?>
<!-- Created with Inkscape (http://www.inkscape.org/) -->

<svg
   width="1250mm"
   height="600mm"
   viewBox="0 0 1250 600"
   version="1.1"
   id="svg8"
   inkscape:version="0.92.5 (2060ec1f9f, 2020-04-08)"
   sodipodi:docname="gradient_logo_ink.svg"
   inkscape:export-filename="/home/simon/git_workspace/gradient_logo_ink.png"
   inkscape:export-xdpi="84.666664"
   inkscape:export-ydpi="84.666664"
   xmlns:inkscape="http://www.inkscape.org/namespaces/inkscape"
   xmlns:sodipodi="http://sodipodi.sourceforge.net/DTD/sodipodi-0.dtd"
   xmlns="http://www.w3.org/2000/svg"
   xmlns:svg="http://www.w3.org/2000/svg"
   xmlns:rdf="http://www.w3.org/1999/02/22-rdf-syntax-ns#"
   xmlns:cc="http://creativecommons.org/ns#"
   xmlns:dc="http://purl.org/dc/elements/1.1/">
  <defs
     id="defs2">
    <linearGradient
       id="linearGradient6519"
       inkscape:swatch="solid">
      <stop
         style="stop-color:#8888bb;stop-opacity:1;"
         offset="0"
         id="stop6517" />
    </linearGradient>
  </defs>
  <sodipodi:namedview
     id="base"
     pagecolor="#ffffff"
     bordercolor="#666666"
     borderopacity="1.0"
     inkscape:pageopacity="0.0"
     inkscape:pageshadow="2"
     inkscape:zoom="0.35"
     inkscape:cx="2285.4724"
     inkscape:cy="1060.3606"
     inkscape:document-units="mm"
     inkscape:current-layer="layer1"
     showgrid="false"
     inkscape:window-width="2486"
     inkscape:window-height="1376"
     inkscape:window-x="2634"
     inkscape:window-y="1467"
     inkscape:window-maximized="1"
     units="mm"
     height="600mm"
     inkscape:showpageshadow="2"
     inkscape:pagecheckerboard="0"
     inkscape:deskcolor="#d1d1d1" />
  <metadata
     id="metadata5">
    <rdf:RDF>
      <cc:Work
         rdf:about="">
        <dc:format>image/svg+xml</dc:format>
        <dc:type
           rdf:resource="http://purl.org/dc/dcmitype/StillImage" />
        <dc:title />
      </cc:Work>
    </rdf:RDF>
  </metadata>
  <g
     inkscape:label="Layer 1"
     inkscape:groupmode="layer"
     id="layer1"
     transform="translate(0,303)">
    <g
       id="flowRoot4928"
       style="font-size:40px;line-height:1.25;letter-spacing:0px;word-spacing:0px;fill:#e8e8f5;fill-opacity:1;stroke-width:0.0937892"
       transform="matrix(2.8477116,0,0,2.7946243,-5345.6192,-967.44256)"
       aria-label="Gradient&#10;Free&#10;Optimizers">
      <path
         d="m 2118.9774,296.25056 q -2.96,0 -5.48,-1.04 -2.52,-1.08 -4.36,-2.96 -1.84,-1.88 -2.88,-4.44 -1,-2.56 -1,-5.56 0,-3 1.04,-5.56 1.04,-2.56 2.88,-4.48 1.88,-1.92 4.4,-2.96 2.52,-1.08 5.48,-1.08 3.32,0 6.08,1.32 2.76,1.32 4.48,3.8 l -1.48,1.48 q -1.52,-2.2 -3.88,-3.36 -2.32,-1.2 -5.2,-1.2 -3.36,0 -6,1.56 -2.64,1.56 -4.12,4.28 -1.48,2.72 -1.48,6.2 0,3.48 1.48,6.2 1.48,2.72 4.04,4.24 2.56,1.52 5.92,1.52 3.2,0 5.56,-1.32 2.36,-1.32 3.68,-3.84 1.32,-2.56 1.32,-6.08 l 1.08,0.8 h -12.04 v -1.92 h 13.16 v 0.36 q 0,4.48 -1.6,7.64 -1.56,3.12 -4.44,4.76 -2.84,1.64 -6.64,1.64 z m 17.84,-0.36 v -18.6 h 2.04 v 18.6 z m 2.04,-11.12 -1,-0.36 q 0,-3.56 1.8,-5.52 1.8,-2 4.72,-2 1.36,0 2.52,0.48 1.2,0.48 2.2,1.56 l -1.36,1.44 q -0.76,-0.84 -1.64,-1.2 -0.88,-0.36 -2.08,-0.36 -2.28,0 -3.72,1.56 -1.44,1.52 -1.44,4.4 z m 21.1201,11.52 q -2.68,0 -4.84,-1.28 -2.12,-1.28 -3.36,-3.44 -1.24,-2.2 -1.24,-4.96 0,-2.72 1.24,-4.92 1.24,-2.2 3.36,-3.48 2.12,-1.32 4.76,-1.32 2.16,0 3.84,0.84 1.72,0.8 2.8,2.28 1.12,1.48 1.44,3.52 v 6.08 q -0.36,2.04 -1.48,3.56 -1.08,1.48 -2.76,2.32 -1.64,0.8 -3.76,0.8 z m 0.28,-1.92 q 3.2,0 5.08,-2.12 1.92,-2.16 1.92,-5.64 0,-2.36 -0.88,-4.08 -0.84,-1.76 -2.44,-2.72 -1.6,-1 -3.72,-1 -2.2,0 -3.92,1 -1.68,1 -2.68,2.76 -0.96,1.76 -0.96,4 0,2.28 0.96,4.04 1,1.76 2.72,2.76 1.72,1 3.92,1 z m 6.92,1.52 v -5 l 0.44,-4.56 -0.44,-4.52 v -4.52 h 2.04 v 18.6 z m 16.08,0.4 q -2.64,0 -4.72,-1.28 -2.08,-1.28 -3.28,-3.44 -1.2,-2.2 -1.2,-4.96 0,-2.76 1.2,-4.96 1.2,-2.2 3.28,-3.48 2.08,-1.28 4.72,-1.28 2.04,0 3.76,0.8 1.76,0.8 2.96,2.32 1.2,1.48 1.52,3.52 v 6.08 q -0.36,2 -1.52,3.52 -1.16,1.48 -2.92,2.32 -1.72,0.84 -3.8,0.84 z m 0.36,-1.92 q 2.12,0 3.72,-1 1.6,-1 2.48,-2.72 0.92,-1.76 0.92,-4.04 0,-2.32 -0.92,-4.04 -0.92,-1.76 -2.56,-2.76 -1.6,-1 -3.76,-1 -2.12,0 -3.8,1 -1.64,1 -2.6,2.76 -0.96,1.72 -0.96,4 0,2.28 0.96,4.04 0.96,1.76 2.64,2.76 1.68,1 3.88,1 z m 9.08,1.52 h -2.04 v -5 l 0.48,-4.56 -0.48,-4.52 v -14 h 2.04 z m 6.04,0 v -18.6 h 2 v 18.6 z m 1,-22.92 q -0.68,0 -1.16,-0.48 -0.44,-0.52 -0.44,-1.2 0,-0.68 0.44,-1.12 0.48,-0.48 1.16,-0.48 0.68,0 1.16,0.48 0.48,0.44 0.48,1.12 0,0.68 -0.48,1.2 -0.48,0.48 -1.16,0.48 z m 15.6399,23.32 q -2.76,0 -5,-1.28 -2.2,-1.28 -3.48,-3.48 -1.28,-2.2 -1.28,-4.96 0,-2.76 1.24,-4.92 1.24,-2.2 3.4,-3.48 2.2,-1.28 4.88,-1.28 2.56,0 4.48,1.16 1.96,1.12 3.04,3.12 1.12,2 1.12,4.6 0,0.24 -0.04,0.64 -0.04,0.36 -0.12,0.92 h -16.56 v -1.76 h 15.4 l -0.68,0.56 q 0.08,-2.2 -0.72,-3.84 -0.8,-1.68 -2.32,-2.6 -1.52,-0.92 -3.64,-0.92 -2.2,0 -3.88,1 -1.68,0.96 -2.64,2.68 -0.92,1.72 -0.92,4 0,2.4 0.96,4.2 1,1.76 2.76,2.76 1.76,0.96 4.12,0.96 1.8,0 3.32,-0.64 1.56,-0.68 2.6,-2 l 1.36,1.32 q -1.28,1.52 -3.24,2.4 -1.92,0.84 -4.16,0.84 z m 27.0401,-0.4 v -11.04 q 0,-2.72 -1.6,-4.4 -1.6,-1.68 -4.24,-1.68 -1.8,0 -3.2,0.8 -1.36,0.76 -2.16,2.12 -0.76,1.36 -0.76,3.16 l -1.04,-0.6 q 0,-2.12 1,-3.76 1,-1.68 2.72,-2.64 1.72,-0.96 3.92,-0.96 2.2,0 3.84,1.04 1.68,1 2.6,2.76 0.92,1.76 0.92,3.92 v 11.28 z m -14,0 v -18.6 h 2.04 v 18.6 z m 24.32,0 v -26.48 h 2.04 v 26.48 z m -4.8,-16.8 v -1.8 h 11.64 v 1.8 z"
         id="path1" />
      <path
         d="m 2106.5774,346.24158 v -27.28 h 2.12 v 27.28 z m 1.36,-12.64 v -1.92 h 14.96 v 1.92 z m 0,-12.72 v -1.92 h 15.64 v 1.92 z m 20.6,25.36 v -18.6 h 2.04 v 18.6 z m 2.04,-11.12 -1,-0.36 q 0,-3.56 1.8,-5.52 1.8,-2 4.72,-2 1.36,0 2.52,0.48 1.2,0.48 2.2,1.56 l -1.36,1.44 q -0.76,-0.84 -1.64,-1.2 -0.88,-0.36 -2.08,-0.36 -2.28,0 -3.72,1.56 -1.44,1.52 -1.44,4.4 z m 21.44,11.52 q -2.76,0 -5,-1.28 -2.2,-1.28 -3.48,-3.48 -1.28,-2.2 -1.28,-4.96 0,-2.76 1.24,-4.92 1.24,-2.2 3.4,-3.48 2.2,-1.28 4.88,-1.28 2.56,0 4.48,1.16 1.96,1.12 3.04,3.12 1.12,2 1.12,4.6 0,0.24 -0.04,0.64 -0.04,0.36 -0.12,0.92 h -16.56 v -1.76 h 15.4 l -0.68,0.56 q 0.08,-2.2 -0.72,-3.84 -0.8,-1.68 -2.32,-2.6 -1.52,-0.92 -3.64,-0.92 -2.2,0 -3.88,1 -1.68,0.96 -2.64,2.68 -0.92,1.72 -0.92,4 0,2.4 0.96,4.2 1,1.76 2.76,2.76 1.76,0.96 4.12,0.96 1.8,0 3.32,-0.64 1.56,-0.68 2.6,-2 l 1.36,1.32 q -1.28,1.52 -3.24,2.4 -1.92,0.84 -4.16,0.84 z m 21.6001,0 q -2.76,0 -5,-1.28 -2.2,-1.28 -3.48,-3.48 -1.28,-2.2 -1.28,-4.96 0,-2.76 1.24,-4.92 1.24,-2.2 3.4,-3.48 2.2,-1.28 4.88,-1.28 2.56,0 4.48,1.16 1.96,1.12 3.04,3.12 1.12,2 1.12,4.6 0,0.24 -0.04,0.64 -0.04,0.36 -0.12,0.92 h -16.56 v -1.76 h 15.4 l -0.68,0.56 q 0.08,-2.2 -0.72,-3.84 -0.8,-1.68 -2.32,-2.6 -1.52,-0.92 -3.64,-0.92 -2.2,0 -3.88,1 -1.68,0.96 -2.64,2.68 -0.92,1.72 -0.92,4 0,2.4 0.96,4.2 1,1.76 2.76,2.76 1.76,0.96 4.12,0.96 1.8,0 3.32,-0.64 1.56,-0.68 2.6,-2 l 1.36,1.32 q -1.28,1.52 -3.24,2.4 -1.92,0.84 -4.16,0.84 z"
         id="path2" />
      <path
         d="m 2118.7774,396.99259 q -2.88,0 -5.36,-1.08 -2.44,-1.08 -4.28,-3 -1.84,-1.96 -2.88,-4.52 -1,-2.56 -1,-5.48 0,-2.96 1,-5.48 1,-2.56 2.84,-4.48 1.84,-1.92 4.28,-2.96 2.44,-1.08 5.32,-1.08 2.88,0 5.32,1.08 2.48,1.04 4.28,2.96 1.84,1.92 2.88,4.48 1.04,2.56 1.04,5.52 0,2.92 -1.04,5.48 -1,2.56 -2.84,4.48 -1.84,1.92 -4.28,3 -2.4,1.08 -5.28,1.08 z m -0.08,-2.04 q 3.28,0 5.8,-1.56 2.56,-1.6 4.04,-4.32 1.48,-2.72 1.48,-6.16 0,-2.56 -0.88,-4.72 -0.84,-2.2 -2.36,-3.8 -1.52,-1.64 -3.6,-2.52 -2.04,-0.92 -4.48,-0.92 -3.24,0 -5.8,1.56 -2.52,1.56 -4,4.28 -1.44,2.68 -1.44,6.12 0,2.56 0.84,4.76 0.84,2.2 2.36,3.84 1.52,1.64 3.56,2.56 2.08,0.88 4.48,0.88 z m 28.32,2.04 q -2.08,0 -3.84,-0.84 -1.72,-0.84 -2.88,-2.32 -1.16,-1.52 -1.52,-3.52 v -6.08 q 0.36,-2.04 1.52,-3.52 1.2,-1.52 2.92,-2.32 1.76,-0.8 3.8,-0.8 2.64,0 4.72,1.28 2.08,1.28 3.28,3.48 1.2,2.2 1.2,4.96 0,2.76 -1.2,4.96 -1.2,2.16 -3.28,3.44 -2.08,1.28 -4.72,1.28 z m -9.44,7.48 v -26.48 h 2.04 v 4.64 l -0.48,4.52 0.48,4.56 v 12.76 z m 9.08,-9.4 q 2.2,0 3.88,-1 1.68,-1 2.64,-2.76 0.96,-1.76 0.96,-4.04 0,-2.28 -0.96,-4.04 -0.96,-1.76 -2.64,-2.72 -1.64,-1 -3.76,-1 -2.16,0 -3.8,1 -1.6,0.96 -2.52,2.72 -0.92,1.76 -0.92,4.08 0,2.28 0.88,4.04 0.92,1.72 2.52,2.72 1.64,1 3.72,1 z m 16.6,1.52 v -26.48 h 2.04 v 26.48 z m -4.8,-16.8 v -1.8 h 11.64 v 1.8 z m 15.8,16.8 v -18.6 h 2 v 18.6 z m 1,-22.92 q -0.68,0 -1.16,-0.48 -0.44,-0.52 -0.44,-1.2 0,-0.68 0.44,-1.12 0.48,-0.48 1.16,-0.48 0.68,0 1.16,0.48 0.48,0.44 0.48,1.12 0,0.68 -0.48,1.2 -0.48,0.48 -1.16,0.48 z m 7.08,22.92 v -18.6 h 2.04 v 18.6 z m 13.04,0 v -11.56 q 0,-2.52 -1.52,-4.04 -1.48,-1.52 -3.8,-1.52 -1.56,0 -2.84,0.68 -1.28,0.68 -2.08,1.92 -0.76,1.24 -0.76,2.88 l -1.04,-0.24 q 0,-2.16 0.92,-3.76 0.96,-1.6 2.56,-2.48 1.64,-0.88 3.64,-0.88 2,0 3.56,0.88 1.56,0.88 2.48,2.48 0.92,1.6 0.92,3.76 v 11.88 z m 13.04,0 v -11.56 q 0,-2.52 -1.52,-4.04 -1.48,-1.52 -3.8,-1.52 -1.56,0 -2.88,0.68 -1.28,0.68 -2.04,1.92 -0.76,1.24 -0.76,2.88 l -1.24,-0.24 q 0.04,-2.2 1,-3.76 1,-1.6 2.64,-2.48 1.64,-0.88 3.64,-0.88 2,0 3.56,0.88 1.56,0.88 2.48,2.52 0.96,1.6 0.96,3.76 v 11.84 z m 7.68,0 v -18.6 h 2 v 18.6 z m 1,-22.92 q -0.68,0 -1.16,-0.48 -0.44,-0.52 -0.44,-1.2 0,-0.68 0.44,-1.12 0.48,-0.48 1.16,-0.48 0.68,0 1.16,0.48 0.48,0.44 0.48,1.12 0,0.68 -0.48,1.2 -0.48,0.48 -1.16,0.48 z m 5.4,21.8 12.4,-16.36 h 2.4 l -12.4,16.36 z m 0,1.12 v -1.12 l 1.6,-0.68 h 13 v 1.8 z m 0.64,-16.8 v -1.8 h 14.16 v 1.12 l -1.92,0.68 z m 26.68,17.2 q -2.76,0 -5,-1.28 -2.2,-1.28 -3.48,-3.48 -1.28,-2.2 -1.28,-4.96 0,-2.76 1.24,-4.92 1.24,-2.2 3.4,-3.48 2.2,-1.28 4.88,-1.28 2.56,0 4.48,1.16 1.96,1.12 3.04,3.12 1.12,2 1.12,4.6 0,0.24 -0.04,0.64 -0.04,0.36 -0.12,0.92 h -16.56 v -1.76 h 15.4 l -0.68,0.56 q 0.08,-2.2 -0.72,-3.84 -0.8,-1.68 -2.32,-2.6 -1.52,-0.92 -3.64,-0.92 -2.2,0 -3.88,1 -1.68,0.96 -2.64,2.68 -0.92,1.72 -0.92,4 0,2.4 0.96,4.2 1,1.76 2.76,2.76 1.76,0.96 4.12,0.96 1.8,0 3.32,-0.64 1.56,-0.68 2.6,-2 l 1.36,1.32 q -1.28,1.52 -3.24,2.4 -1.92,0.84 -4.16,0.84 z m 13.04,-0.4 v -18.6 h 2.04 v 18.6 z m 2.04,-11.12 -1,-0.36 q 0,-3.56 1.8,-5.52 1.8,-2 4.72,-2 1.36,0 2.52,0.48 1.2,0.48 2.2,1.56 l -1.36,1.44 q -0.76,-0.84 -1.64,-1.2 -0.88,-0.36 -2.08,-0.36 -2.28,0 -3.72,1.56 -1.44,1.52 -1.44,4.4 z m 18.72,11.52 q -1.52,0 -2.88,-0.4 -1.32,-0.44 -2.44,-1.2 -1.08,-0.76 -1.92,-1.76 l 1.36,-1.36 q 1.12,1.48 2.6,2.2 1.52,0.68 3.32,0.68 2.08,0 3.28,-0.84 1.2,-0.84 1.2,-2.36 0,-1.36 -0.76,-2.12 -0.76,-0.8 -2,-1.24 -1.2,-0.44 -2.56,-0.84 -1.32,-0.4 -2.56,-0.96 -1.2,-0.56 -1.96,-1.56 -0.76,-1 -0.76,-2.68 0,-1.48 0.76,-2.6 0.76,-1.12 2.12,-1.72 1.4,-0.64 3.28,-0.64 2.08,0 3.72,0.72 1.68,0.72 2.68,2.12 l -1.32,1.36 q -0.8,-1.12 -2.16,-1.72 -1.36,-0.64 -3.04,-0.64 -2,0 -3.04,0.84 -1.04,0.84 -1.04,2.16 0,1.24 0.76,1.96 0.76,0.72 1.96,1.12 1.24,0.4 2.56,0.8 1.36,0.36 2.56,0.96 1.24,0.6 2,1.64 0.76,1.04 0.76,2.84 0,2.4 -1.76,3.84 -1.76,1.4 -4.72,1.4 z"
         id="path3" />
    </g>
    <g
       id="g6788"
       transform="matrix(1.2507354,0,0,1.2505419,-81.467276,2.8116476)"
       style="stroke-width:0.79959148">
      <path
         id="path6713"
         style="opacity:0.51700003;vector-effect:none;fill:none;fill-opacity:0.04830921;stroke:#99c4ff;stroke-width:11.36048317;stroke-linecap:butt;stroke-linejoin:miter;stroke-miterlimit:4;stroke-dasharray:none;stroke-dashoffset:0;stroke-opacity:1"
         sodipodi:type="arc"
         sodipodi:cx="312.73123"
         sodipodi:cy="46.253223"
         sodipodi:rx="147.38683"
         sodipodi:ry="145.98111"
         sodipodi:start="1.4516098"
         sodipodi:end="3.074389"
         sodipodi:open="true"
         d="M 330.2562,191.1987 A 147.38683,145.98111 0 0 1 218.66384,158.63558 147.38683,145.98111 0 0 1 165.6771,56.056304"
         transform="rotate(-10.792134)" />
      <ellipse
         transform="rotate(20.190408)"
         style="opacity:0.46400003;fill:#99c4ff;fill-opacity:1;stroke-width:0.21155858"
         ry="27.912651"
         rx="28.205763"
         cy="-121.33279"
         cx="291.92209"
         id="path4518" />
      <path
         transform="rotate(20.190408)"
         d="M 410.28968,-77.111965 A 126.51831,125.22771 0 0 1 323.39461,-0.041549 126.51831,125.22771 0 0 1 209.73253,-26.127911"
         sodipodi:open="true"
         sodipodi:end="2.2778885"
         sodipodi:start="0.36090738"
         sodipodi:ry="125.22771"
         sodipodi:rx="126.51831"
         sodipodi:cy="-121.33279"
         sodipodi:cx="291.92209"
         sodipodi:type="arc"
         id="ellipse4526"
         style="opacity:0.60100002;vector-effect:none;fill:none;fill-opacity:0.04830921;stroke:#b0b0c0;stroke-width:6.34675741;stroke-linecap:butt;stroke-linejoin:miter;stroke-miterlimit:4;stroke-dasharray:none;stroke-dashoffset:0;stroke-opacity:1" />
      <path
         transform="rotate(20.190408)"
         d="M 384.35708,-56.204175 A 113.46213,112.30726 0 0 1 275.3973,-10.223006 113.46213,112.30726 0 0 1 184.44684,-85.333579"
         sodipodi:open="true"
         sodipodi:end="2.8152909"
         sodipodi:start="0.61862378"
         sodipodi:ry="112.30726"
         sodipodi:rx="113.46213"
         sodipodi:cy="-121.33279"
         sodipodi:cx="291.92206"
         sodipodi:type="arc"
         style="opacity:0.60100002;vector-effect:none;fill:none;fill-opacity:0.04830921;stroke:#b0b0c0;stroke-width:6.34675741;stroke-linecap:butt;stroke-linejoin:miter;stroke-miterlimit:4;stroke-dasharray:none;stroke-dashoffset:0;stroke-opacity:1"
         id="ellipse4528" />
      <path
         transform="rotate(-159.80959)"
         style="opacity:0.60100002;vector-effect:none;fill:none;fill-opacity:0.04830921;stroke:#b0b0c0;stroke-width:6.34675741;stroke-linecap:butt;stroke-linejoin:miter;stroke-miterlimit:4;stroke-dasharray:none;stroke-dashoffset:0;stroke-opacity:1"
         id="path4645"
         sodipodi:type="arc"
         sodipodi:cx="-292.63943"
         sodipodi:cy="119.34153"
         sodipodi:rx="126.51831"
         sodipodi:ry="125.22771"
         sodipodi:start="0.36090738"
         sodipodi:end="2.2778885"
         sodipodi:open="true"
         d="M -174.27184,163.56235 A 126.51831,125.22771 0 0 1 -261.16691,240.63277 126.51831,125.22771 0 0 1 -374.829,214.54641" />
      <path
         transform="rotate(-159.80959)"
         id="path4647"
         style="opacity:0.60100002;vector-effect:none;fill:none;fill-opacity:0.04830921;stroke:#b0b0c0;stroke-width:6.34675741;stroke-linecap:butt;stroke-linejoin:miter;stroke-miterlimit:4;stroke-dasharray:none;stroke-dashoffset:0;stroke-opacity:1"
         sodipodi:type="arc"
         sodipodi:cx="-292.34958"
         sodipodi:cy="120.14606"
         sodipodi:rx="113.46214"
         sodipodi:ry="112.30726"
         sodipodi:start="0.61862378"
         sodipodi:end="2.8152909"
         sodipodi:open="true"
         d="m -199.91454,185.27467 a 113.46214,112.30726 0 0 1 -108.9598,45.98117 113.46214,112.30726 0 0 1 -90.95047,-75.11058" />
      <path
         inkscape:connector-curvature="0"
         id="path4649"
         d="m 390.6777,-17.451237 11.88221,-0.966276 c -2.68203,-32.958376 -24.07886,-61.617761 -55.04973,-73.81969 -30.97084,-12.201917 -66.17673,-5.845043 -90.64256,16.415133 l 8.02315,8.818885 c 21.09114,-19.189736 51.45588,-24.696216 78.24908,-14.140198 26.79324,10.556017 45.22615,35.284591 47.53785,63.692146 z"
         style="color:#000000;font-style:normal;font-variant:normal;font-weight:normal;font-stretch:normal;font-size:medium;line-height:normal;font-family:sans-serif;font-variant-ligatures:normal;font-variant-position:normal;font-variant-caps:normal;font-variant-numeric:normal;font-variant-alternates:normal;font-feature-settings:normal;text-indent:0;text-align:start;text-decoration:none;text-decoration-line:none;text-decoration-style:solid;text-decoration-color:#000000;letter-spacing:normal;word-spacing:normal;text-transform:none;writing-mode:lr-tb;direction:ltr;text-orientation:mixed;dominant-baseline:auto;baseline-shift:baseline;text-anchor:start;white-space:normal;shape-padding:0;clip-rule:nonzero;display:inline;overflow:visible;visibility:visible;opacity:0.50499998;isolation:auto;mix-blend-mode:normal;color-interpolation:sRGB;color-interpolation-filters:linearRGB;solid-color:#000000;solid-opacity:1;vector-effect:none;fill:none;fill-opacity:1;fill-rule:nonzero;stroke:#b0b0c0;stroke-width:1.90402722;stroke-linecap:butt;stroke-linejoin:miter;stroke-miterlimit:4;stroke-dasharray:none;stroke-dashoffset:0;stroke-opacity:0.78743956;color-rendering:auto;image-rendering:auto;shape-rendering:auto;text-rendering:auto;enable-background:accumulate" />
      <path
         transform="rotate(-159.80959)"
         id="path4651"
         style="opacity:1;vector-effect:none;fill:none;fill-opacity:0.04830921;stroke:#8888bb;stroke-width:0.84581125;stroke-linecap:butt;stroke-linejoin:miter;stroke-miterlimit:4;stroke-dasharray:none;stroke-dashoffset:0;stroke-opacity:0.78260869"
         sodipodi:type="arc"
         sodipodi:cx="-292.21481"
         sodipodi:cy="120.52014"
         sodipodi:rx="69.416862"
         sodipodi:ry="68.754791"
         sodipodi:start="0.56116793"
         sodipodi:end="2.1538874"
         sodipodi:open="true"
         d="m -233.44413,157.10975 a 69.416862,68.754791 0 0 1 -44.07821,30.6075 69.416862,68.754791 0 0 1 -52.91388,-9.80304" />
      <path
         transform="rotate(-159.80959)"
         style="opacity:1;vector-effect:none;fill:none;fill-opacity:0.04830921;stroke:#8888bb;stroke-width:0.84581125;stroke-linecap:butt;stroke-linejoin:miter;stroke-miterlimit:4;stroke-dasharray:none;stroke-dashoffset:0;stroke-opacity:0.78260869"
         id="path4653"
         sodipodi:type="arc"
         sodipodi:cx="-292.29575"
         sodipodi:cy="120.2955"
         sodipodi:rx="93.133049"
         sodipodi:ry="92.273697"
         sodipodi:start="0.3200664"
         sodipodi:end="2.9165645"
         sodipodi:open="true"
         d="m -203.8925,149.32754 a 93.133049,92.273697 0 0 1 -92.82718,63.1375 93.133049,92.273697 0 0 1 -86.36103,-71.58016" />
      <path
         transform="matrix(-0.93855082,0.34514108,0.34514108,0.93855082,0,0)"
         style="opacity:0.60100002;vector-effect:none;fill:none;fill-opacity:0.04830921;stroke:#b0b0c0;stroke-width:6.34675741;stroke-linecap:butt;stroke-linejoin:miter;stroke-miterlimit:4;stroke-dasharray:none;stroke-dashoffset:0;stroke-opacity:1"
         id="path5013"
         sodipodi:type="arc"
         sodipodi:cx="-300.98044"
         sodipodi:cy="96.700165"
         sodipodi:rx="227.20119"
         sodipodi:ry="224.88348"
         sodipodi:start="0.36090738"
         sodipodi:end="2.2778885"
         sodipodi:open="true"
         d="m -88.41628,176.11176 a 227.20119,224.88348 0 0 1 -156.0459,138.40279 227.20119,224.88348 0 0 1 -204.11402,-46.8458" />
      <path
         transform="matrix(-0.93855082,0.34514108,0.34514108,0.93855082,0,0)"
         id="path5015"
         style="opacity:0.60100002;fill:none;fill-opacity:0.04830921;stroke:#b0b0c0;stroke-width:6.34675741;stroke-miterlimit:4;stroke-dasharray:none"
         sodipodi:type="arc"
         sodipodi:cx="-300.98047"
         sodipodi:cy="96.700172"
         sodipodi:rx="214.13"
         sodipodi:ry="211.9505"
         sodipodi:start="0.61862378"
         sodipodi:end="2.8152909"
         sodipodi:open="true"
         d="m -126.53361,219.61335 a 214.13,211.9505 0 0 1 -205.633,86.7774 214.13,211.9505 0 0 1 -171.64514,-141.75151" />
      <path
         inkscape:connector-curvature="0"
         id="path5017"
         d="m 481.62905,-0.93986616 6.71118,0.546671 C 483.00717,65.14246 440.47009,122.14863 378.81099,146.44113 317.15189,170.73364 247.13141,158.07352 198.47998,113.8081 l 4.53165,-4.97979 c 46.74551,42.53132 114.0308,54.71149 173.3305,31.34854 C 435.64184,116.8139 476.50514,62.025637 481.62905,-0.93986616 Z"
         style="color:#000000;font-style:normal;font-variant:normal;font-weight:normal;font-stretch:normal;font-size:medium;line-height:normal;font-family:sans-serif;font-variant-ligatures:normal;font-variant-position:normal;font-variant-caps:normal;font-variant-numeric:normal;font-variant-alternates:normal;font-feature-settings:normal;text-indent:0;text-align:start;text-decoration:none;text-decoration-line:none;text-decoration-style:solid;text-decoration-color:#000000;letter-spacing:normal;word-spacing:normal;text-transform:none;writing-mode:lr-tb;direction:ltr;text-orientation:mixed;dominant-baseline:auto;baseline-shift:baseline;text-anchor:start;white-space:normal;shape-padding:0;clip-rule:nonzero;display:inline;overflow:visible;visibility:visible;opacity:0.50499998;isolation:auto;mix-blend-mode:normal;color-interpolation:sRGB;color-interpolation-filters:linearRGB;solid-color:#000000;solid-opacity:1;vector-effect:none;fill:none;fill-opacity:1;fill-rule:nonzero;stroke:#b0b0c0;stroke-width:1.05779278;stroke-linecap:butt;stroke-linejoin:miter;stroke-miterlimit:4;stroke-dasharray:none;stroke-dashoffset:0;stroke-opacity:0.78743956;color-rendering:auto;image-rendering:auto;shape-rendering:auto;text-rendering:auto;enable-background:accumulate" />
      <path
         transform="matrix(-0.93855082,0.34514108,0.34514108,0.93855082,0,0)"
         id="path5019"
         style="opacity:1;vector-effect:none;fill:none;fill-opacity:0.04830921;stroke:#8888bb;stroke-width:0.84581125;stroke-linecap:butt;stroke-linejoin:miter;stroke-miterlimit:4;stroke-dasharray:none;stroke-dashoffset:0;stroke-opacity:0.78260869"
         sodipodi:type="arc"
         sodipodi:cx="-300.98044"
         sodipodi:cy="96.700195"
         sodipodi:rx="191.30556"
         sodipodi:ry="189.48093"
         sodipodi:start="0.71834175"
         sodipodi:end="3.074389"
         sodipodi:open="true"
         d="m -156.94684,221.40462 a 191.30556,189.48093 0 0 1 -205.2223,54.82285 191.30556,189.48093 0 0 1 -129.68502,-166.80305" />
      <path
         transform="matrix(-0.93855082,0.34514108,0.34514108,0.93855082,0,0)"
         style="opacity:1;fill:none;fill-opacity:0.04830921;stroke:#8888bb;stroke-width:0.84581125;stroke-miterlimit:4;stroke-dasharray:none;stroke-opacity:0.78260869"
         id="path5021"
         sodipodi:type="arc"
         sodipodi:cx="-300.98044"
         sodipodi:cy="96.700142"
         sodipodi:rx="201.08749"
         sodipodi:ry="199.23203"
         sodipodi:start="0.3200664"
         sodipodi:end="2.9165645"
         sodipodi:open="true"
         d="M -110.10527,159.38443 A 201.08749,199.23203 0 0 1 -310.53234,295.70727 201.08749,199.23203 0 0 1 -496.99808,141.15554" />
      <path
         d="M 512.25636,-20.864479 A 227.20119,224.88348 0 0 1 356.21046,117.53831 227.20119,224.88348 0 0 1 152.09644,70.69251"
         sodipodi:open="true"
         sodipodi:end="2.2778885"
         sodipodi:start="0.36090738"
         sodipodi:ry="224.88348"
         sodipodi:rx="227.20119"
         sodipodi:cy="-100.27608"
         sodipodi:cx="299.6922"
         sodipodi:type="arc"
         id="path5023"
         style="opacity:0.60100002;vector-effect:none;fill:none;fill-opacity:0.04830921;stroke:#b0b0c0;stroke-width:6.34675741;stroke-linecap:butt;stroke-linejoin:miter;stroke-miterlimit:4;stroke-dasharray:none;stroke-dashoffset:0;stroke-opacity:1"
         transform="matrix(0.93855082,-0.34514108,-0.34514108,-0.93855082,0,0)" />
      <path
         d="M 474.62044,23.973387 A 214.13,211.9505 0 0 1 268.98744,110.75079 214.13,211.9505 0 0 1 97.342307,-31.000725"
         sodipodi:open="true"
         sodipodi:end="2.8152909"
         sodipodi:start="0.61862378"
         sodipodi:ry="211.9505"
         sodipodi:rx="214.13"
         sodipodi:cy="-98.939789"
         sodipodi:cx="300.17358"
         sodipodi:type="arc"
         style="opacity:0.60100002;vector-effect:none;fill:none;fill-opacity:0.04830921;stroke:#b0b0c0;stroke-width:6.34675741;stroke-linecap:butt;stroke-linejoin:miter;stroke-miterlimit:4;stroke-dasharray:none;stroke-dashoffset:0;stroke-opacity:1"
         id="path5025"
         transform="matrix(0.93855082,-0.34514108,-0.34514108,-0.93855082,0,0)" />
      <path
         style="color:#000000;font-style:normal;font-variant:normal;font-weight:normal;font-stretch:normal;font-size:medium;line-height:normal;font-family:sans-serif;font-variant-ligatures:normal;font-variant-position:normal;font-variant-caps:normal;font-variant-numeric:normal;font-variant-alternates:normal;font-feature-settings:normal;text-indent:0;text-align:start;text-decoration:none;text-decoration-line:none;text-decoration-style:solid;text-decoration-color:#000000;letter-spacing:normal;word-spacing:normal;text-transform:none;writing-mode:lr-tb;direction:ltr;text-orientation:mixed;dominant-baseline:auto;baseline-shift:baseline;text-anchor:start;white-space:normal;shape-padding:0;clip-rule:nonzero;display:inline;overflow:visible;visibility:visible;opacity:0.50499998;isolation:auto;mix-blend-mode:normal;color-interpolation:sRGB;color-interpolation-filters:linearRGB;solid-color:#000000;solid-opacity:1;vector-effect:none;fill:none;fill-opacity:1;fill-rule:nonzero;stroke:#b0b0c0;stroke-width:1.05779278;stroke-linecap:butt;stroke-linejoin:miter;stroke-miterlimit:4;stroke-dasharray:none;stroke-dashoffset:0;stroke-opacity:0.78743956;color-rendering:auto;image-rendering:auto;shape-rendering:auto;text-rendering:auto;enable-background:accumulate"
         d="m 150.09216,-25.305481 -6.71118,-0.546671 c 5.33306,-65.535655 47.87014,-122.541828 109.52924,-146.834328 61.6591,-24.29251 131.67958,-11.63239 180.33101,32.63303 l -4.53165,4.97979 c -46.74551,-42.53132 -114.0308,-54.71149 -173.3305,-31.34854 -59.29971,23.36295 -100.16301,78.151216 -105.28692,141.116719 z"
         id="path6671"
         inkscape:connector-curvature="0" />
      <path
         d="M 491.85555,-34.015943 A 201.08749,199.23203 0 0 1 291.42847,102.30689 201.08749,199.23203 0 0 1 104.96274,-52.244833"
         sodipodi:open="true"
         sodipodi:end="2.9165645"
         sodipodi:start="0.3200664"
         sodipodi:ry="199.23203"
         sodipodi:rx="201.08749"
         sodipodi:cy="-96.700233"
         sodipodi:cx="300.98038"
         sodipodi:type="arc"
         id="path6709"
         style="opacity:1;fill:none;fill-opacity:0.04830921;stroke:#8888bb;stroke-width:0.84581125;stroke-miterlimit:4;stroke-dasharray:none;stroke-opacity:0.78260869"
         transform="matrix(0.9385508,-0.34514111,-0.34514111,-0.9385508,0,0)" />
      <path
         transform="rotate(169.20787)"
         d="M -295.20605,98.69232 A 147.38683,145.98111 0 0 1 -406.79841,66.129206 147.38683,145.98111 0 0 1 -459.78515,-36.450074"
         sodipodi:open="true"
         sodipodi:end="3.074389"
         sodipodi:start="1.4516098"
         sodipodi:ry="145.98111"
         sodipodi:rx="147.38683"
         sodipodi:cy="-46.253155"
         sodipodi:cx="-312.73102"
         sodipodi:type="arc"
         style="opacity:0.51700003;vector-effect:none;fill:none;fill-opacity:0.04830921;stroke:#99c4ff;stroke-width:11.36048317;stroke-linecap:butt;stroke-linejoin:miter;stroke-miterlimit:4;stroke-dasharray:none;stroke-dashoffset:0;stroke-opacity:1"
         id="path6731" />
      <path
         d="M 445.01391,28.004321 A 191.30556,189.48093 0 0 1 239.79162,82.827176 191.30556,189.48093 0 0 1 110.1066,-83.975876"
         sodipodi:open="true"
         sodipodi:end="3.074389"
         sodipodi:start="0.71834175"
         sodipodi:ry="189.48093"
         sodipodi:rx="191.30556"
         sodipodi:cy="-96.700104"
         sodipodi:cx="300.98032"
         sodipodi:type="arc"
         style="opacity:1;vector-effect:none;fill:none;fill-opacity:0.04830921;stroke:#8888bb;stroke-width:0.84581125;stroke-linecap:butt;stroke-linejoin:miter;stroke-miterlimit:4;stroke-dasharray:none;stroke-dashoffset:0;stroke-opacity:0.78260869"
         id="path6735"
         transform="matrix(0.9385508,-0.34514111,-0.34514111,-0.9385508,0,0)" />
      <path
         style="color:#000000;font-style:normal;font-variant:normal;font-weight:normal;font-stretch:normal;font-size:medium;line-height:normal;font-family:sans-serif;font-variant-ligatures:normal;font-variant-position:normal;font-variant-caps:normal;font-variant-numeric:normal;font-variant-alternates:normal;font-feature-settings:normal;text-indent:0;text-align:start;text-decoration:none;text-decoration-line:none;text-decoration-style:solid;text-decoration-color:#000000;letter-spacing:normal;word-spacing:normal;text-transform:none;writing-mode:lr-tb;direction:ltr;text-orientation:mixed;dominant-baseline:auto;baseline-shift:baseline;text-anchor:start;white-space:normal;shape-padding:0;clip-rule:nonzero;display:inline;overflow:visible;visibility:visible;opacity:0.50499998;isolation:auto;mix-blend-mode:normal;color-interpolation:sRGB;color-interpolation-filters:linearRGB;solid-color:#000000;solid-opacity:1;vector-effect:none;fill:none;fill-opacity:1;fill-rule:nonzero;stroke:#b0b0c0;stroke-width:1.90402722;stroke-linecap:butt;stroke-linejoin:miter;stroke-miterlimit:4;stroke-dasharray:none;stroke-dashoffset:0;stroke-opacity:0.78743956;color-rendering:auto;image-rendering:auto;shape-rendering:auto;text-rendering:auto;enable-background:accumulate"
         d="m 241.04346,-8.7941698 -11.88221,0.966276 c 2.68203,32.9583758 24.07886,61.6177608 55.04973,73.8196898 30.97084,12.201917 66.17673,5.845043 90.64256,-16.415133 l -8.02315,-8.818885 C 345.73925,59.947514 315.37451,65.453994 288.58131,54.897976 261.78807,44.341959 243.35516,19.613385 241.04346,-8.7941698 Z"
         id="path6759"
         inkscape:connector-curvature="0" />
      <path
         d="m 350.3999,-85.55584 a 69.416862,68.754791 0 0 1 -44.07822,30.607497 69.416862,68.754791 0 0 1 -52.91387,-9.803033"
         sodipodi:open="true"
         sodipodi:end="2.1538874"
         sodipodi:start="0.56116793"
         sodipodi:ry="68.754791"
         sodipodi:rx="69.416862"
         sodipodi:cy="-122.14545"
         sodipodi:cx="291.62921"
         sodipodi:type="arc"
         style="opacity:1;vector-effect:none;fill:none;fill-opacity:0.04830921;stroke:#8888bb;stroke-width:0.84581125;stroke-linecap:butt;stroke-linejoin:miter;stroke-miterlimit:4;stroke-dasharray:none;stroke-dashoffset:0;stroke-opacity:0.78260869"
         id="path6761"
         transform="rotate(20.19041)" />
      <path
         d="m 379.95152,-93.338051 a 93.133049,92.273697 0 0 1 -92.82718,63.137501 93.133049,92.273697 0 0 1 -86.36102,-71.58016"
         sodipodi:open="true"
         sodipodi:end="2.9165645"
         sodipodi:start="0.3200664"
         sodipodi:ry="92.273697"
         sodipodi:rx="93.133049"
         sodipodi:cy="-122.37009"
         sodipodi:cx="291.54828"
         sodipodi:type="arc"
         id="path6763"
         style="opacity:1;vector-effect:none;fill:none;fill-opacity:0.04830921;stroke:#8888bb;stroke-width:0.84581125;stroke-linecap:butt;stroke-linejoin:miter;stroke-miterlimit:4;stroke-dasharray:none;stroke-dashoffset:0;stroke-opacity:0.78260869"
         transform="rotate(20.19041)" />
    </g>
  </g>
</svg>
